<mxfile host="65bd71144e">
    <diagram id="arY5G79bw7AYbM3NAtxZ" name="stil_parser_UML">
        <mxGraphModel dx="5763" dy="2600" grid="1" gridSize="10" guides="1" tooltips="1" connect="1" arrows="1" fold="1" page="0" pageScale="1" pageWidth="850" pageHeight="1100" math="0" shadow="0">
            <root>
                <mxCell id="0"/>
                <mxCell id="1" parent="0"/>
                <mxCell id="Ro5tH7595L1BBS2STnO7-1" value="StilSignal" style="swimlane;fontStyle=1;align=center;verticalAlign=top;childLayout=stackLayout;horizontal=1;startSize=26;horizontalStack=0;resizeParent=1;resizeParentMax=0;resizeLast=0;collapsible=1;marginBottom=0;whiteSpace=wrap;html=1;fillColor=#60A917;fontColor=#ffffff;strokeColor=#2D7600;fontSize=13;" parent="1" vertex="1">
                    <mxGeometry x="-560" width="280" height="112" as="geometry">
                        <mxRectangle x="-560" width="90" height="30" as="alternateBounds"/>
                    </mxGeometry>
                </mxCell>
                <mxCell id="Ro5tH7595L1BBS2STnO7-3" value="+ signal_type: StilSignalType" style="text;strokeColor=none;fillColor=none;align=left;verticalAlign=top;spacingLeft=4;spacingRight=4;overflow=hidden;rotatable=0;points=[[0,0.5],[1,0.5]];portConstraint=eastwest;whiteSpace=wrap;html=1;fontSize=13;" parent="Ro5tH7595L1BBS2STnO7-1" vertex="1">
                    <mxGeometry y="26" width="280" height="26" as="geometry"/>
                </mxCell>
                <mxCell id="Ro5tH7595L1BBS2STnO7-2" value="+ name: str" style="text;strokeColor=none;fillColor=none;align=left;verticalAlign=top;spacingLeft=4;spacingRight=4;overflow=hidden;rotatable=0;points=[[0,0.5],[1,0.5]];portConstraint=eastwest;whiteSpace=wrap;html=1;fontSize=13;" parent="Ro5tH7595L1BBS2STnO7-1" vertex="1">
                    <mxGeometry y="52" width="280" height="26" as="geometry"/>
                </mxCell>
                <mxCell id="Ro5tH7595L1BBS2STnO7-4" value="" style="line;strokeWidth=1;fillColor=none;align=left;verticalAlign=middle;spacingTop=-1;spacingLeft=3;spacingRight=3;rotatable=0;labelPosition=right;points=[];portConstraint=eastwest;strokeColor=inherit;fontSize=13;" parent="Ro5tH7595L1BBS2STnO7-1" vertex="1">
                    <mxGeometry y="78" width="280" height="8" as="geometry"/>
                </mxCell>
                <mxCell id="Ro5tH7595L1BBS2STnO7-5" value="+ get_signal_str(): str" style="text;strokeColor=none;fillColor=none;align=left;verticalAlign=top;spacingLeft=4;spacingRight=4;overflow=hidden;rotatable=0;points=[[0,0.5],[1,0.5]];portConstraint=eastwest;whiteSpace=wrap;html=1;fontSize=13;" parent="Ro5tH7595L1BBS2STnO7-1" vertex="1">
                    <mxGeometry y="86" width="280" height="26" as="geometry"/>
                </mxCell>
                <mxCell id="Ro5tH7595L1BBS2STnO7-6" value="StilSignalGroup" style="swimlane;fontStyle=1;align=center;verticalAlign=top;childLayout=stackLayout;horizontal=1;startSize=26;horizontalStack=0;resizeParent=1;resizeParentMax=0;resizeLast=0;collapsible=1;marginBottom=0;whiteSpace=wrap;html=1;fillColor=#60a917;fontColor=#ffffff;strokeColor=#2D7600;fontSize=13;" parent="1" vertex="1">
                    <mxGeometry x="-210" width="280" height="268" as="geometry"/>
                </mxCell>
                <mxCell id="Ro5tH7595L1BBS2STnO7-7" value="+ name: str" style="text;strokeColor=none;fillColor=none;align=left;verticalAlign=top;spacingLeft=4;spacingRight=4;overflow=hidden;rotatable=0;points=[[0,0.5],[1,0.5]];portConstraint=eastwest;whiteSpace=wrap;html=1;fontSize=13;" parent="Ro5tH7595L1BBS2STnO7-6" vertex="1">
                    <mxGeometry y="26" width="280" height="26" as="geometry"/>
                </mxCell>
                <mxCell id="Ro5tH7595L1BBS2STnO7-16" value="+ signal_list: List[StilSignal]" style="text;strokeColor=none;fillColor=none;align=left;verticalAlign=top;spacingLeft=4;spacingRight=4;overflow=hidden;rotatable=0;points=[[0,0.5],[1,0.5]];portConstraint=eastwest;whiteSpace=wrap;html=1;fontSize=13;" parent="Ro5tH7595L1BBS2STnO7-6" vertex="1">
                    <mxGeometry y="52" width="280" height="26" as="geometry"/>
                </mxCell>
                <mxCell id="Ro5tH7595L1BBS2STnO7-8" value="+ signal_type: StilSignalType" style="text;strokeColor=none;fillColor=none;align=left;verticalAlign=top;spacingLeft=4;spacingRight=4;overflow=hidden;rotatable=0;points=[[0,0.5],[1,0.5]];portConstraint=eastwest;whiteSpace=wrap;html=1;fontSize=13;" parent="Ro5tH7595L1BBS2STnO7-6" vertex="1">
                    <mxGeometry y="78" width="280" height="26" as="geometry"/>
                </mxCell>
                <mxCell id="Ro5tH7595L1BBS2STnO7-9" value="" style="line;strokeWidth=1;fillColor=none;align=left;verticalAlign=middle;spacingTop=-1;spacingLeft=3;spacingRight=3;rotatable=0;labelPosition=right;points=[];portConstraint=eastwest;strokeColor=inherit;fontSize=13;" parent="Ro5tH7595L1BBS2STnO7-6" vertex="1">
                    <mxGeometry y="104" width="280" height="8" as="geometry"/>
                </mxCell>
                <mxCell id="Ro5tH7595L1BBS2STnO7-10" value="+ add_signal(): None" style="text;strokeColor=none;fillColor=none;align=left;verticalAlign=top;spacingLeft=4;spacingRight=4;overflow=hidden;rotatable=0;points=[[0,0.5],[1,0.5]];portConstraint=eastwest;whiteSpace=wrap;html=1;fontSize=13;" parent="Ro5tH7595L1BBS2STnO7-6" vertex="1">
                    <mxGeometry y="112" width="280" height="26" as="geometry"/>
                </mxCell>
                <mxCell id="Ro5tH7595L1BBS2STnO7-78" value="+ get_signal_from_name(): None" style="text;strokeColor=none;fillColor=none;align=left;verticalAlign=top;spacingLeft=4;spacingRight=4;overflow=hidden;rotatable=0;points=[[0,0.5],[1,0.5]];portConstraint=eastwest;whiteSpace=wrap;html=1;fontSize=13;" parent="Ro5tH7595L1BBS2STnO7-6" vertex="1">
                    <mxGeometry y="138" width="280" height="26" as="geometry"/>
                </mxCell>
                <mxCell id="Ro5tH7595L1BBS2STnO7-79" value="+ is_in_group(): None" style="text;strokeColor=none;fillColor=none;align=left;verticalAlign=top;spacingLeft=4;spacingRight=4;overflow=hidden;rotatable=0;points=[[0,0.5],[1,0.5]];portConstraint=eastwest;whiteSpace=wrap;html=1;fontSize=13;" parent="Ro5tH7595L1BBS2STnO7-6" vertex="1">
                    <mxGeometry y="164" width="280" height="26" as="geometry"/>
                </mxCell>
                <mxCell id="Ro5tH7595L1BBS2STnO7-80" value="+ remove_signal(): None" style="text;strokeColor=none;fillColor=none;align=left;verticalAlign=top;spacingLeft=4;spacingRight=4;overflow=hidden;rotatable=0;points=[[0,0.5],[1,0.5]];portConstraint=eastwest;whiteSpace=wrap;html=1;fontSize=13;" parent="Ro5tH7595L1BBS2STnO7-6" vertex="1">
                    <mxGeometry y="190" width="280" height="26" as="geometry"/>
                </mxCell>
                <mxCell id="Ro5tH7595L1BBS2STnO7-81" value="+ empty(): None" style="text;strokeColor=none;fillColor=none;align=left;verticalAlign=top;spacingLeft=4;spacingRight=4;overflow=hidden;rotatable=0;points=[[0,0.5],[1,0.5]];portConstraint=eastwest;whiteSpace=wrap;html=1;fontSize=13;" parent="Ro5tH7595L1BBS2STnO7-6" vertex="1">
                    <mxGeometry y="216" width="280" height="26" as="geometry"/>
                </mxCell>
                <mxCell id="Ro5tH7595L1BBS2STnO7-82" value="+ get_signal_group_name(): None" style="text;strokeColor=none;fillColor=none;align=left;verticalAlign=top;spacingLeft=4;spacingRight=4;overflow=hidden;rotatable=0;points=[[0,0.5],[1,0.5]];portConstraint=eastwest;whiteSpace=wrap;html=1;fontSize=13;" parent="Ro5tH7595L1BBS2STnO7-6" vertex="1">
                    <mxGeometry y="242" width="280" height="26" as="geometry"/>
                </mxCell>
                <mxCell id="Ro5tH7595L1BBS2STnO7-11" value="&lt;font style=&quot;color: rgb(255, 255, 255);&quot;&gt;StilSignalType&lt;/font&gt;" style="swimlane;fontStyle=1;align=center;verticalAlign=top;childLayout=stackLayout;horizontal=1;startSize=26;horizontalStack=0;resizeParent=1;resizeParentMax=0;resizeLast=0;collapsible=1;marginBottom=0;whiteSpace=wrap;html=1;fillColor=#F0A30A;fontColor=#000000;strokeColor=#BD7000;fontSize=13;" parent="1" vertex="1">
                    <mxGeometry x="-1000" width="280" height="86" as="geometry"/>
                </mxCell>
                <mxCell id="Ro5tH7595L1BBS2STnO7-12" value="+ INPUT=&quot;In&quot;" style="text;strokeColor=none;fillColor=none;align=left;verticalAlign=top;spacingLeft=4;spacingRight=4;overflow=hidden;rotatable=0;points=[[0,0.5],[1,0.5]];portConstraint=eastwest;whiteSpace=wrap;html=1;fontSize=13;" parent="Ro5tH7595L1BBS2STnO7-11" vertex="1">
                    <mxGeometry y="26" width="280" height="26" as="geometry"/>
                </mxCell>
                <mxCell id="Ro5tH7595L1BBS2STnO7-13" value="+ OUTPUT=&quot;Out&quot;" style="text;strokeColor=none;fillColor=none;align=left;verticalAlign=top;spacingLeft=4;spacingRight=4;overflow=hidden;rotatable=0;points=[[0,0.5],[1,0.5]];portConstraint=eastwest;whiteSpace=wrap;html=1;fontSize=13;" parent="Ro5tH7595L1BBS2STnO7-11" vertex="1">
                    <mxGeometry y="52" width="280" height="26" as="geometry"/>
                </mxCell>
                <mxCell id="Ro5tH7595L1BBS2STnO7-14" value="" style="line;strokeWidth=1;fillColor=none;align=left;verticalAlign=middle;spacingTop=-1;spacingLeft=3;spacingRight=3;rotatable=0;labelPosition=right;points=[];portConstraint=eastwest;strokeColor=inherit;fontSize=13;" parent="Ro5tH7595L1BBS2STnO7-11" vertex="1">
                    <mxGeometry y="78" width="280" height="8" as="geometry"/>
                </mxCell>
                <mxCell id="Ro5tH7595L1BBS2STnO7-17" value="StilWaveform" style="swimlane;fontStyle=1;align=center;verticalAlign=top;childLayout=stackLayout;horizontal=1;startSize=26;horizontalStack=0;resizeParent=1;resizeParentMax=0;resizeLast=0;collapsible=1;marginBottom=0;whiteSpace=wrap;html=1;fillColor=#60a917;fontColor=#ffffff;strokeColor=#2D7600;fontSize=13;" parent="1" vertex="1">
                    <mxGeometry x="200" width="280" height="242" as="geometry"/>
                </mxCell>
                <mxCell id="Ro5tH7595L1BBS2STnO7-19" value="+ period: int" style="text;strokeColor=none;fillColor=none;align=left;verticalAlign=top;spacingLeft=4;spacingRight=4;overflow=hidden;rotatable=0;points=[[0,0.5],[1,0.5]];portConstraint=eastwest;whiteSpace=wrap;html=1;fontSize=13;" parent="Ro5tH7595L1BBS2STnO7-17" vertex="1">
                    <mxGeometry y="26" width="280" height="26" as="geometry"/>
                </mxCell>
                <mxCell id="Ro5tH7595L1BBS2STnO7-20" value="+ units: StilUnits" style="text;strokeColor=none;fillColor=none;align=left;verticalAlign=top;spacingLeft=4;spacingRight=4;overflow=hidden;rotatable=0;points=[[0,0.5],[1,0.5]];portConstraint=eastwest;whiteSpace=wrap;html=1;fontSize=13;" parent="Ro5tH7595L1BBS2STnO7-17" vertex="1">
                    <mxGeometry y="52" width="280" height="26" as="geometry"/>
                </mxCell>
                <mxCell id="Ro5tH7595L1BBS2STnO7-18" value="+ signal_group: StilSignalGroup" style="text;strokeColor=none;fillColor=none;align=left;verticalAlign=top;spacingLeft=4;spacingRight=4;overflow=hidden;rotatable=0;points=[[0,0.5],[1,0.5]];portConstraint=eastwest;whiteSpace=wrap;html=1;fontSize=13;" parent="Ro5tH7595L1BBS2STnO7-17" vertex="1">
                    <mxGeometry y="78" width="280" height="26" as="geometry"/>
                </mxCell>
                <mxCell id="Ro5tH7595L1BBS2STnO7-43" value="+ timing_cond_list: List[StilTimingCondition]" style="text;strokeColor=none;fillColor=none;align=left;verticalAlign=top;spacingLeft=4;spacingRight=4;overflow=hidden;rotatable=0;points=[[0,0.5],[1,0.5]];portConstraint=eastwest;whiteSpace=wrap;html=1;fontSize=13;" parent="Ro5tH7595L1BBS2STnO7-17" vertex="1">
                    <mxGeometry y="104" width="280" height="26" as="geometry"/>
                </mxCell>
                <mxCell id="Ro5tH7595L1BBS2STnO7-44" value="+ timestamp_dict: Dict[int, StilValue]" style="text;strokeColor=none;fillColor=none;align=left;verticalAlign=top;spacingLeft=4;spacingRight=4;overflow=hidden;rotatable=0;points=[[0,0.5],[1,0.5]];portConstraint=eastwest;whiteSpace=wrap;html=1;fontSize=13;" parent="Ro5tH7595L1BBS2STnO7-17" vertex="1">
                    <mxGeometry y="130" width="280" height="26" as="geometry"/>
                </mxCell>
                <mxCell id="Ro5tH7595L1BBS2STnO7-21" value="" style="line;strokeWidth=1;fillColor=none;align=left;verticalAlign=middle;spacingTop=-1;spacingLeft=3;spacingRight=3;rotatable=0;labelPosition=right;points=[];portConstraint=eastwest;strokeColor=inherit;fontSize=13;" parent="Ro5tH7595L1BBS2STnO7-17" vertex="1">
                    <mxGeometry y="156" width="280" height="8" as="geometry"/>
                </mxCell>
                <mxCell id="Ro5tH7595L1BBS2STnO7-22" value="+ add_timing_condition(): None" style="text;strokeColor=none;fillColor=none;align=left;verticalAlign=top;spacingLeft=4;spacingRight=4;overflow=hidden;rotatable=0;points=[[0,0.5],[1,0.5]];portConstraint=eastwest;whiteSpace=wrap;html=1;fontSize=13;" parent="Ro5tH7595L1BBS2STnO7-17" vertex="1">
                    <mxGeometry y="164" width="280" height="26" as="geometry"/>
                </mxCell>
                <mxCell id="Ro5tH7595L1BBS2STnO7-45" value="+ add_timestamp(): None" style="text;strokeColor=none;fillColor=none;align=left;verticalAlign=top;spacingLeft=4;spacingRight=4;overflow=hidden;rotatable=0;points=[[0,0.5],[1,0.5]];portConstraint=eastwest;whiteSpace=wrap;html=1;fontSize=13;" parent="Ro5tH7595L1BBS2STnO7-17" vertex="1">
                    <mxGeometry y="190" width="280" height="26" as="geometry"/>
                </mxCell>
                <mxCell id="Ro5tH7595L1BBS2STnO7-46" value="+ get_waveform_str(): str" style="text;strokeColor=none;fillColor=none;align=left;verticalAlign=top;spacingLeft=4;spacingRight=4;overflow=hidden;rotatable=0;points=[[0,0.5],[1,0.5]];portConstraint=eastwest;whiteSpace=wrap;html=1;fontSize=13;" parent="Ro5tH7595L1BBS2STnO7-17" vertex="1">
                    <mxGeometry y="216" width="280" height="26" as="geometry"/>
                </mxCell>
                <mxCell id="Ro5tH7595L1BBS2STnO7-23" value="&lt;font style=&quot;color: rgb(255, 255, 255);&quot;&gt;StilUnits&lt;/font&gt;" style="swimlane;fontStyle=1;align=center;verticalAlign=top;childLayout=stackLayout;horizontal=1;startSize=26;horizontalStack=0;resizeParent=1;resizeParentMax=0;resizeLast=0;collapsible=1;marginBottom=0;whiteSpace=wrap;html=1;fillColor=#f0a30a;fontColor=#000000;strokeColor=#BD7000;fontSize=13;" parent="1" vertex="1">
                    <mxGeometry x="-1000" y="-200" width="280" height="164" as="geometry"/>
                </mxCell>
                <mxCell id="Ro5tH7595L1BBS2STnO7-24" value="+ MS=&quot;ms&quot;" style="text;strokeColor=none;fillColor=none;align=left;verticalAlign=top;spacingLeft=4;spacingRight=4;overflow=hidden;rotatable=0;points=[[0,0.5],[1,0.5]];portConstraint=eastwest;whiteSpace=wrap;html=1;fontSize=13;" parent="Ro5tH7595L1BBS2STnO7-23" vertex="1">
                    <mxGeometry y="26" width="280" height="26" as="geometry"/>
                </mxCell>
                <mxCell id="Ro5tH7595L1BBS2STnO7-25" value="+ US=&quot;us&quot;" style="text;strokeColor=none;fillColor=none;align=left;verticalAlign=top;spacingLeft=4;spacingRight=4;overflow=hidden;rotatable=0;points=[[0,0.5],[1,0.5]];portConstraint=eastwest;whiteSpace=wrap;html=1;fontSize=13;" parent="Ro5tH7595L1BBS2STnO7-23" vertex="1">
                    <mxGeometry y="52" width="280" height="26" as="geometry"/>
                </mxCell>
                <mxCell id="Ro5tH7595L1BBS2STnO7-27" value="+ NS=&quot;ns&quot;" style="text;strokeColor=none;fillColor=none;align=left;verticalAlign=top;spacingLeft=4;spacingRight=4;overflow=hidden;rotatable=0;points=[[0,0.5],[1,0.5]];portConstraint=eastwest;whiteSpace=wrap;html=1;fontSize=13;" parent="Ro5tH7595L1BBS2STnO7-23" vertex="1">
                    <mxGeometry y="78" width="280" height="26" as="geometry"/>
                </mxCell>
                <mxCell id="Ro5tH7595L1BBS2STnO7-28" value="+ PS=&quot;ps&quot;" style="text;strokeColor=none;fillColor=none;align=left;verticalAlign=top;spacingLeft=4;spacingRight=4;overflow=hidden;rotatable=0;points=[[0,0.5],[1,0.5]];portConstraint=eastwest;whiteSpace=wrap;html=1;fontSize=13;" parent="Ro5tH7595L1BBS2STnO7-23" vertex="1">
                    <mxGeometry y="104" width="280" height="26" as="geometry"/>
                </mxCell>
                <mxCell id="Ro5tH7595L1BBS2STnO7-29" value="+ FS=&quot;fs&quot;" style="text;strokeColor=none;fillColor=none;align=left;verticalAlign=top;spacingLeft=4;spacingRight=4;overflow=hidden;rotatable=0;points=[[0,0.5],[1,0.5]];portConstraint=eastwest;whiteSpace=wrap;html=1;fontSize=13;" parent="Ro5tH7595L1BBS2STnO7-23" vertex="1">
                    <mxGeometry y="130" width="280" height="26" as="geometry"/>
                </mxCell>
                <mxCell id="Ro5tH7595L1BBS2STnO7-26" value="" style="line;strokeWidth=1;fillColor=none;align=left;verticalAlign=middle;spacingTop=-1;spacingLeft=3;spacingRight=3;rotatable=0;labelPosition=right;points=[];portConstraint=eastwest;strokeColor=inherit;fontSize=13;" parent="Ro5tH7595L1BBS2STnO7-23" vertex="1">
                    <mxGeometry y="156" width="280" height="8" as="geometry"/>
                </mxCell>
                <mxCell id="Ro5tH7595L1BBS2STnO7-30" value="&lt;font style=&quot;color: rgb(255, 255, 255);&quot;&gt;StilCompare&lt;/font&gt;" style="swimlane;fontStyle=1;align=center;verticalAlign=top;childLayout=stackLayout;horizontal=1;startSize=26;horizontalStack=0;resizeParent=1;resizeParentMax=0;resizeLast=0;collapsible=1;marginBottom=0;whiteSpace=wrap;html=1;fillColor=#f0a30a;fontColor=#000000;strokeColor=#BD7000;fontSize=13;" parent="1" vertex="1">
                    <mxGeometry x="-1400" y="120" width="280" height="138" as="geometry"/>
                </mxCell>
                <mxCell id="Ro5tH7595L1BBS2STnO7-31" value="+ HIGH=&quot;H&quot;" style="text;strokeColor=none;fillColor=none;align=left;verticalAlign=top;spacingLeft=4;spacingRight=4;overflow=hidden;rotatable=0;points=[[0,0.5],[1,0.5]];portConstraint=eastwest;whiteSpace=wrap;html=1;fontSize=13;" parent="Ro5tH7595L1BBS2STnO7-30" vertex="1">
                    <mxGeometry y="26" width="280" height="26" as="geometry"/>
                </mxCell>
                <mxCell id="Ro5tH7595L1BBS2STnO7-32" value="+ LOW=&quot;L&quot;" style="text;strokeColor=none;fillColor=none;align=left;verticalAlign=top;spacingLeft=4;spacingRight=4;overflow=hidden;rotatable=0;points=[[0,0.5],[1,0.5]];portConstraint=eastwest;whiteSpace=wrap;html=1;fontSize=13;" parent="Ro5tH7595L1BBS2STnO7-30" vertex="1">
                    <mxGeometry y="52" width="280" height="26" as="geometry"/>
                </mxCell>
                <mxCell id="Ro5tH7595L1BBS2STnO7-33" value="+ DONT_CARE=&quot;X&quot;" style="text;strokeColor=none;fillColor=none;align=left;verticalAlign=top;spacingLeft=4;spacingRight=4;overflow=hidden;rotatable=0;points=[[0,0.5],[1,0.5]];portConstraint=eastwest;whiteSpace=wrap;html=1;fontSize=13;" parent="Ro5tH7595L1BBS2STnO7-30" vertex="1">
                    <mxGeometry y="78" width="280" height="26" as="geometry"/>
                </mxCell>
                <mxCell id="Ro5tH7595L1BBS2STnO7-34" value="+ HIGH_IMPEDANCE=&quot;T&quot;" style="text;strokeColor=none;fillColor=none;align=left;verticalAlign=top;spacingLeft=4;spacingRight=4;overflow=hidden;rotatable=0;points=[[0,0.5],[1,0.5]];portConstraint=eastwest;whiteSpace=wrap;html=1;fontSize=13;" parent="Ro5tH7595L1BBS2STnO7-30" vertex="1">
                    <mxGeometry y="104" width="280" height="26" as="geometry"/>
                </mxCell>
                <mxCell id="Ro5tH7595L1BBS2STnO7-36" value="" style="line;strokeWidth=1;fillColor=none;align=left;verticalAlign=middle;spacingTop=-1;spacingLeft=3;spacingRight=3;rotatable=0;labelPosition=right;points=[];portConstraint=eastwest;strokeColor=inherit;fontSize=13;" parent="Ro5tH7595L1BBS2STnO7-30" vertex="1">
                    <mxGeometry y="130" width="280" height="8" as="geometry"/>
                </mxCell>
                <mxCell id="Ro5tH7595L1BBS2STnO7-37" value="&lt;font style=&quot;color: rgb(255, 255, 255);&quot;&gt;StilForce&lt;/font&gt;" style="swimlane;fontStyle=1;align=center;verticalAlign=top;childLayout=stackLayout;horizontal=1;startSize=26;horizontalStack=0;resizeParent=1;resizeParentMax=0;resizeLast=0;collapsible=1;marginBottom=0;whiteSpace=wrap;html=1;fillColor=#f0a30a;fontColor=#000000;strokeColor=#BD7000;fontSize=13;" parent="1" vertex="1">
                    <mxGeometry x="-1400" y="-40" width="280" height="112" as="geometry"/>
                </mxCell>
                <mxCell id="Ro5tH7595L1BBS2STnO7-38" value="+ UP=&quot;D&quot;" style="text;strokeColor=none;fillColor=none;align=left;verticalAlign=top;spacingLeft=4;spacingRight=4;overflow=hidden;rotatable=0;points=[[0,0.5],[1,0.5]];portConstraint=eastwest;whiteSpace=wrap;html=1;fontSize=13;" parent="Ro5tH7595L1BBS2STnO7-37" vertex="1">
                    <mxGeometry y="26" width="280" height="26" as="geometry"/>
                </mxCell>
                <mxCell id="Ro5tH7595L1BBS2STnO7-39" value="+ DOWN=&quot;D&quot;" style="text;strokeColor=none;fillColor=none;align=left;verticalAlign=top;spacingLeft=4;spacingRight=4;overflow=hidden;rotatable=0;points=[[0,0.5],[1,0.5]];portConstraint=eastwest;whiteSpace=wrap;html=1;fontSize=13;" parent="Ro5tH7595L1BBS2STnO7-37" vertex="1">
                    <mxGeometry y="52" width="280" height="26" as="geometry"/>
                </mxCell>
                <mxCell id="Ro5tH7595L1BBS2STnO7-40" value="+ NONE=&quot;N&quot;" style="text;strokeColor=none;fillColor=none;align=left;verticalAlign=top;spacingLeft=4;spacingRight=4;overflow=hidden;rotatable=0;points=[[0,0.5],[1,0.5]];portConstraint=eastwest;whiteSpace=wrap;html=1;fontSize=13;" parent="Ro5tH7595L1BBS2STnO7-37" vertex="1">
                    <mxGeometry y="78" width="280" height="26" as="geometry"/>
                </mxCell>
                <mxCell id="Ro5tH7595L1BBS2STnO7-42" value="" style="line;strokeWidth=1;fillColor=none;align=left;verticalAlign=middle;spacingTop=-1;spacingLeft=3;spacingRight=3;rotatable=0;labelPosition=right;points=[];portConstraint=eastwest;strokeColor=inherit;fontSize=13;" parent="Ro5tH7595L1BBS2STnO7-37" vertex="1">
                    <mxGeometry y="104" width="280" height="8" as="geometry"/>
                </mxCell>
                <mxCell id="8ts7aHDEhac-k3moO0ko-19" style="edgeStyle=orthogonalEdgeStyle;shape=connector;rounded=1;html=1;strokeColor=#BD7000;align=center;verticalAlign=middle;fontFamily=Helvetica;fontSize=13;fontColor=default;labelBackgroundColor=default;startSize=10;endArrow=block;endFill=0;endSize=10;fillColor=#f0a30a;strokeWidth=1;" parent="1" source="Ro5tH7595L1BBS2STnO7-47" target="Ro5tH7595L1BBS2STnO7-30" edge="1">
                    <mxGeometry relative="1" as="geometry">
                        <Array as="points">
                            <mxPoint x="-1080" y="537"/>
                            <mxPoint x="-1080" y="130"/>
                        </Array>
                    </mxGeometry>
                </mxCell>
                <mxCell id="8ts7aHDEhac-k3moO0ko-20" style="edgeStyle=orthogonalEdgeStyle;shape=connector;rounded=1;html=1;strokeColor=#BD7000;align=center;verticalAlign=middle;fontFamily=Helvetica;fontSize=13;fontColor=default;labelBackgroundColor=default;startSize=10;endArrow=block;endFill=0;endSize=10;fillColor=#f0a30a;strokeWidth=1;" parent="1" source="Ro5tH7595L1BBS2STnO7-47" target="Ro5tH7595L1BBS2STnO7-37" edge="1">
                    <mxGeometry relative="1" as="geometry">
                        <Array as="points">
                            <mxPoint x="-1080" y="537"/>
                            <mxPoint x="-1080" y="-30"/>
                        </Array>
                    </mxGeometry>
                </mxCell>
                <mxCell id="Ro5tH7595L1BBS2STnO7-47" value="&lt;font style=&quot;color: rgb(255, 255, 255);&quot;&gt;StilValue&lt;/font&gt;" style="swimlane;fontStyle=1;align=center;verticalAlign=top;childLayout=stackLayout;horizontal=1;startSize=26;horizontalStack=0;resizeParent=1;resizeParentMax=0;resizeLast=0;collapsible=1;marginBottom=0;whiteSpace=wrap;html=1;fillColor=#d80073;fontColor=#ffffff;strokeColor=#A50040;fontSize=13;" parent="1" vertex="1">
                    <mxGeometry x="-960" y="520" width="280" height="34" as="geometry"/>
                </mxCell>
                <mxCell id="Ro5tH7595L1BBS2STnO7-52" value="" style="line;strokeWidth=1;fillColor=#d80073;align=left;verticalAlign=middle;spacingTop=-1;spacingLeft=3;spacingRight=3;rotatable=0;labelPosition=right;points=[];portConstraint=eastwest;strokeColor=#A50040;fontSize=13;fontColor=#ffffff;" parent="Ro5tH7595L1BBS2STnO7-47" vertex="1">
                    <mxGeometry y="26" width="280" height="8" as="geometry"/>
                </mxCell>
                <mxCell id="Ro5tH7595L1BBS2STnO7-53" value="StilWaveformTable" style="swimlane;fontStyle=1;align=center;verticalAlign=top;childLayout=stackLayout;horizontal=1;startSize=26;horizontalStack=0;resizeParent=1;resizeParentMax=0;resizeLast=0;collapsible=1;marginBottom=0;whiteSpace=wrap;html=1;fillColor=#60a917;fontColor=#ffffff;strokeColor=#2D7600;fontSize=13;" parent="1" vertex="1">
                    <mxGeometry x="560" width="280" height="190" as="geometry"/>
                </mxCell>
                <mxCell id="Ro5tH7595L1BBS2STnO7-55" value="+ period: int" style="text;strokeColor=none;fillColor=none;align=left;verticalAlign=top;spacingLeft=4;spacingRight=4;overflow=hidden;rotatable=0;points=[[0,0.5],[1,0.5]];portConstraint=eastwest;whiteSpace=wrap;html=1;fontSize=13;" parent="Ro5tH7595L1BBS2STnO7-53" vertex="1">
                    <mxGeometry y="26" width="280" height="26" as="geometry"/>
                </mxCell>
                <mxCell id="Ro5tH7595L1BBS2STnO7-56" value="+ units: StilUnits" style="text;strokeColor=none;fillColor=none;align=left;verticalAlign=top;spacingLeft=4;spacingRight=4;overflow=hidden;rotatable=0;points=[[0,0.5],[1,0.5]];portConstraint=eastwest;whiteSpace=wrap;html=1;fontSize=13;" parent="Ro5tH7595L1BBS2STnO7-53" vertex="1">
                    <mxGeometry y="52" width="280" height="26" as="geometry"/>
                </mxCell>
                <mxCell id="Ro5tH7595L1BBS2STnO7-57" value="+ waveform_dict: List[str, StilWaveform]" style="text;strokeColor=none;fillColor=none;align=left;verticalAlign=top;spacingLeft=4;spacingRight=4;overflow=hidden;rotatable=0;points=[[0,0.5],[1,0.5]];portConstraint=eastwest;whiteSpace=wrap;html=1;fontSize=13;" parent="Ro5tH7595L1BBS2STnO7-53" vertex="1">
                    <mxGeometry y="78" width="280" height="26" as="geometry"/>
                </mxCell>
                <mxCell id="Ro5tH7595L1BBS2STnO7-59" value="" style="line;strokeWidth=1;fillColor=none;align=left;verticalAlign=middle;spacingTop=-1;spacingLeft=3;spacingRight=3;rotatable=0;labelPosition=right;points=[];portConstraint=eastwest;strokeColor=inherit;fontSize=13;" parent="Ro5tH7595L1BBS2STnO7-53" vertex="1">
                    <mxGeometry y="104" width="280" height="8" as="geometry"/>
                </mxCell>
                <mxCell id="Ro5tH7595L1BBS2STnO7-60" value="+ add_waveform(): None" style="text;strokeColor=none;fillColor=none;align=left;verticalAlign=top;spacingLeft=4;spacingRight=4;overflow=hidden;rotatable=0;points=[[0,0.5],[1,0.5]];portConstraint=eastwest;whiteSpace=wrap;html=1;fontSize=13;" parent="Ro5tH7595L1BBS2STnO7-53" vertex="1">
                    <mxGeometry y="112" width="280" height="26" as="geometry"/>
                </mxCell>
                <mxCell id="Ro5tH7595L1BBS2STnO7-61" value="+ get_waveform_from_sig_group(): None" style="text;strokeColor=none;fillColor=none;align=left;verticalAlign=top;spacingLeft=4;spacingRight=4;overflow=hidden;rotatable=0;points=[[0,0.5],[1,0.5]];portConstraint=eastwest;whiteSpace=wrap;html=1;fontSize=13;" parent="Ro5tH7595L1BBS2STnO7-53" vertex="1">
                    <mxGeometry y="138" width="280" height="26" as="geometry"/>
                </mxCell>
                <mxCell id="Ro5tH7595L1BBS2STnO7-62" value="+ get_waveform_table_str(): str" style="text;strokeColor=none;fillColor=none;align=left;verticalAlign=top;spacingLeft=4;spacingRight=4;overflow=hidden;rotatable=0;points=[[0,0.5],[1,0.5]];portConstraint=eastwest;whiteSpace=wrap;html=1;fontSize=13;" parent="Ro5tH7595L1BBS2STnO7-53" vertex="1">
                    <mxGeometry y="164" width="280" height="26" as="geometry"/>
                </mxCell>
                <mxCell id="8ts7aHDEhac-k3moO0ko-17" style="edgeStyle=orthogonalEdgeStyle;shape=connector;rounded=1;html=1;strokeColor=#BD7000;align=center;verticalAlign=middle;fontFamily=Helvetica;fontSize=13;fontColor=default;labelBackgroundColor=default;startSize=10;endArrow=block;endFill=0;endSize=10;fillColor=#f0a30a;strokeWidth=1;" parent="1" source="Ro5tH7595L1BBS2STnO7-63" target="Ro5tH7595L1BBS2STnO7-65" edge="1">
                    <mxGeometry relative="1" as="geometry">
                        <Array as="points">
                            <mxPoint x="-1040" y="457"/>
                            <mxPoint x="-1040" y="130"/>
                        </Array>
                    </mxGeometry>
                </mxCell>
                <mxCell id="8ts7aHDEhac-k3moO0ko-18" style="edgeStyle=orthogonalEdgeStyle;shape=connector;rounded=1;html=1;strokeColor=#BD7000;align=center;verticalAlign=middle;fontFamily=Helvetica;fontSize=13;fontColor=default;labelBackgroundColor=default;startSize=10;endArrow=block;endFill=0;endSize=10;fillColor=#f0a30a;strokeWidth=1;" parent="1" source="Ro5tH7595L1BBS2STnO7-63" target="Ro5tH7595L1BBS2STnO7-68" edge="1">
                    <mxGeometry relative="1" as="geometry">
                        <Array as="points">
                            <mxPoint x="-1040" y="457"/>
                            <mxPoint x="-1040" y="-190"/>
                        </Array>
                    </mxGeometry>
                </mxCell>
                <mxCell id="Ro5tH7595L1BBS2STnO7-63" value="&lt;font style=&quot;color: rgb(255, 255, 255);&quot;&gt;StilTimingConditon&lt;/font&gt;" style="swimlane;fontStyle=1;align=center;verticalAlign=top;childLayout=stackLayout;horizontal=1;startSize=26;horizontalStack=0;resizeParent=1;resizeParentMax=0;resizeLast=0;collapsible=1;marginBottom=0;whiteSpace=wrap;html=1;fillColor=#d80073;fontColor=#ffffff;strokeColor=#A50040;fontSize=13;" parent="1" vertex="1">
                    <mxGeometry x="-960" y="440" width="280" height="34" as="geometry"/>
                </mxCell>
                <mxCell id="Ro5tH7595L1BBS2STnO7-64" value="" style="line;strokeWidth=1;fillColor=#d80073;align=left;verticalAlign=middle;spacingTop=-1;spacingLeft=3;spacingRight=3;rotatable=0;labelPosition=right;points=[];portConstraint=eastwest;strokeColor=#A50040;fontSize=13;fontColor=#ffffff;" parent="Ro5tH7595L1BBS2STnO7-63" vertex="1">
                    <mxGeometry y="26" width="280" height="8" as="geometry"/>
                </mxCell>
                <mxCell id="Ro5tH7595L1BBS2STnO7-65" value="&lt;font style=&quot;color: rgb(255, 255, 255);&quot;&gt;StilTimingInCondition&lt;/font&gt;" style="swimlane;fontStyle=1;align=center;verticalAlign=top;childLayout=stackLayout;horizontal=1;startSize=26;horizontalStack=0;resizeParent=1;resizeParentMax=0;resizeLast=0;collapsible=1;marginBottom=0;whiteSpace=wrap;html=1;fillColor=#f0a30a;fontColor=#000000;strokeColor=#BD7000;fontSize=13;" parent="1" vertex="1">
                    <mxGeometry x="-1000" y="120" width="280" height="112" as="geometry"/>
                </mxCell>
                <mxCell id="Ro5tH7595L1BBS2STnO7-70" value="+ ZERO=&quot;0&quot;" style="text;strokeColor=none;fillColor=none;align=left;verticalAlign=top;spacingLeft=4;spacingRight=4;overflow=hidden;rotatable=0;points=[[0,0.5],[1,0.5]];portConstraint=eastwest;whiteSpace=wrap;html=1;fontSize=13;" parent="Ro5tH7595L1BBS2STnO7-65" vertex="1">
                    <mxGeometry y="26" width="280" height="26" as="geometry"/>
                </mxCell>
                <mxCell id="Ro5tH7595L1BBS2STnO7-71" value="+ ONE=&quot;1&quot;" style="text;strokeColor=none;fillColor=none;align=left;verticalAlign=top;spacingLeft=4;spacingRight=4;overflow=hidden;rotatable=0;points=[[0,0.5],[1,0.5]];portConstraint=eastwest;whiteSpace=wrap;html=1;fontSize=13;" parent="Ro5tH7595L1BBS2STnO7-65" vertex="1">
                    <mxGeometry y="52" width="280" height="26" as="geometry"/>
                </mxCell>
                <mxCell id="Ro5tH7595L1BBS2STnO7-72" value="+ UNKNOWN=&quot;N&quot;" style="text;strokeColor=none;fillColor=none;align=left;verticalAlign=top;spacingLeft=4;spacingRight=4;overflow=hidden;rotatable=0;points=[[0,0.5],[1,0.5]];portConstraint=eastwest;whiteSpace=wrap;html=1;fontSize=13;" parent="Ro5tH7595L1BBS2STnO7-65" vertex="1">
                    <mxGeometry y="78" width="280" height="26" as="geometry"/>
                </mxCell>
                <mxCell id="Ro5tH7595L1BBS2STnO7-66" value="" style="line;strokeWidth=1;fillColor=none;align=left;verticalAlign=middle;spacingTop=-1;spacingLeft=3;spacingRight=3;rotatable=0;labelPosition=right;points=[];portConstraint=eastwest;strokeColor=inherit;fontSize=13;" parent="Ro5tH7595L1BBS2STnO7-65" vertex="1">
                    <mxGeometry y="104" width="280" height="8" as="geometry"/>
                </mxCell>
                <mxCell id="Ro5tH7595L1BBS2STnO7-68" value="&lt;font style=&quot;color: rgb(255, 255, 255);&quot;&gt;StilTimingOutCondition&lt;/font&gt;" style="swimlane;fontStyle=1;align=center;verticalAlign=top;childLayout=stackLayout;horizontal=1;startSize=26;horizontalStack=0;resizeParent=1;resizeParentMax=0;resizeLast=0;collapsible=1;marginBottom=0;whiteSpace=wrap;html=1;fillColor=#f0a30a;fontColor=#000000;strokeColor=#BD7000;fontSize=13;" parent="1" vertex="1">
                    <mxGeometry x="-1400" y="-200" width="280" height="138" as="geometry"/>
                </mxCell>
                <mxCell id="Ro5tH7595L1BBS2STnO7-73" value="+ HIGH=&quot;H&quot;" style="text;strokeColor=none;fillColor=none;align=left;verticalAlign=top;spacingLeft=4;spacingRight=4;overflow=hidden;rotatable=0;points=[[0,0.5],[1,0.5]];portConstraint=eastwest;whiteSpace=wrap;html=1;fontSize=13;" parent="Ro5tH7595L1BBS2STnO7-68" vertex="1">
                    <mxGeometry y="26" width="280" height="26" as="geometry"/>
                </mxCell>
                <mxCell id="Ro5tH7595L1BBS2STnO7-74" value="+ LOW=&quot;L&quot;" style="text;strokeColor=none;fillColor=none;align=left;verticalAlign=top;spacingLeft=4;spacingRight=4;overflow=hidden;rotatable=0;points=[[0,0.5],[1,0.5]];portConstraint=eastwest;whiteSpace=wrap;html=1;fontSize=13;" parent="Ro5tH7595L1BBS2STnO7-68" vertex="1">
                    <mxGeometry y="52" width="280" height="26" as="geometry"/>
                </mxCell>
                <mxCell id="Ro5tH7595L1BBS2STnO7-75" value="+ DONT_CARE=&quot;X&quot;" style="text;strokeColor=none;fillColor=none;align=left;verticalAlign=top;spacingLeft=4;spacingRight=4;overflow=hidden;rotatable=0;points=[[0,0.5],[1,0.5]];portConstraint=eastwest;whiteSpace=wrap;html=1;fontSize=13;" parent="Ro5tH7595L1BBS2STnO7-68" vertex="1">
                    <mxGeometry y="78" width="280" height="26" as="geometry"/>
                </mxCell>
                <mxCell id="Ro5tH7595L1BBS2STnO7-76" value="+ HIGH_IMPEDANCE=&quot;T&quot;" style="text;strokeColor=none;fillColor=none;align=left;verticalAlign=top;spacingLeft=4;spacingRight=4;overflow=hidden;rotatable=0;points=[[0,0.5],[1,0.5]];portConstraint=eastwest;whiteSpace=wrap;html=1;fontSize=13;" parent="Ro5tH7595L1BBS2STnO7-68" vertex="1">
                    <mxGeometry y="104" width="280" height="26" as="geometry"/>
                </mxCell>
                <mxCell id="Ro5tH7595L1BBS2STnO7-69" value="" style="line;strokeWidth=1;fillColor=none;align=left;verticalAlign=middle;spacingTop=-1;spacingLeft=3;spacingRight=3;rotatable=0;labelPosition=right;points=[];portConstraint=eastwest;strokeColor=inherit;fontSize=13;" parent="Ro5tH7595L1BBS2STnO7-68" vertex="1">
                    <mxGeometry y="130" width="280" height="8" as="geometry"/>
                </mxCell>
                <mxCell id="Ro5tH7595L1BBS2STnO7-83" value="StilTestVector" style="swimlane;fontStyle=1;align=center;verticalAlign=top;childLayout=stackLayout;horizontal=1;startSize=26;horizontalStack=0;resizeParent=1;resizeParentMax=0;resizeLast=0;collapsible=1;marginBottom=0;whiteSpace=wrap;html=1;fillColor=#60a917;fontColor=#ffffff;strokeColor=#2D7600;fontSize=13;" parent="1" vertex="1">
                    <mxGeometry x="960" width="280" height="268" as="geometry"/>
                </mxCell>
                <mxCell id="Ro5tH7595L1BBS2STnO7-85" value="+ tester_cycle: int" style="text;strokeColor=none;fillColor=none;align=left;verticalAlign=top;spacingLeft=4;spacingRight=4;overflow=hidden;rotatable=0;points=[[0,0.5],[1,0.5]];portConstraint=eastwest;whiteSpace=wrap;html=1;fontSize=13;" parent="Ro5tH7595L1BBS2STnO7-83" vertex="1">
                    <mxGeometry y="26" width="280" height="26" as="geometry"/>
                </mxCell>
                <mxCell id="Ro5tH7595L1BBS2STnO7-86" value="+ waveform_table: StilWaveformTable" style="text;strokeColor=none;fillColor=none;align=left;verticalAlign=top;spacingLeft=4;spacingRight=4;overflow=hidden;rotatable=0;points=[[0,0.5],[1,0.5]];portConstraint=eastwest;whiteSpace=wrap;html=1;fontSize=13;" parent="Ro5tH7595L1BBS2STnO7-83" vertex="1">
                    <mxGeometry y="52" width="280" height="26" as="geometry"/>
                </mxCell>
                <mxCell id="Ro5tH7595L1BBS2STnO7-87" value="+ test_vector: ..." style="text;strokeColor=none;fillColor=none;align=left;verticalAlign=top;spacingLeft=4;spacingRight=4;overflow=hidden;rotatable=0;points=[[0,0.5],[1,0.5]];portConstraint=eastwest;whiteSpace=wrap;html=1;fontSize=13;" parent="Ro5tH7595L1BBS2STnO7-83" vertex="1">
                    <mxGeometry y="78" width="280" height="26" as="geometry"/>
                </mxCell>
                <mxCell id="Ro5tH7595L1BBS2STnO7-92" value="Dict[int, List[Tuple[StilSignal, StilValue]]]" style="text;strokeColor=none;fillColor=none;align=left;verticalAlign=top;spacingLeft=4;spacingRight=4;overflow=hidden;rotatable=0;points=[[0,0.5],[1,0.5]];portConstraint=eastwest;whiteSpace=wrap;html=1;fontSize=13;" parent="Ro5tH7595L1BBS2STnO7-83" vertex="1">
                    <mxGeometry y="104" width="280" height="26" as="geometry"/>
                </mxCell>
                <mxCell id="Ro5tH7595L1BBS2STnO7-88" value="" style="line;strokeWidth=1;fillColor=none;align=left;verticalAlign=middle;spacingTop=-1;spacingLeft=3;spacingRight=3;rotatable=0;labelPosition=right;points=[];portConstraint=eastwest;strokeColor=inherit;fontSize=13;" parent="Ro5tH7595L1BBS2STnO7-83" vertex="1">
                    <mxGeometry y="130" width="280" height="8" as="geometry"/>
                </mxCell>
                <mxCell id="Ro5tH7595L1BBS2STnO7-89" value="+ add_input_event(): None" style="text;strokeColor=none;fillColor=none;align=left;verticalAlign=top;spacingLeft=4;spacingRight=4;overflow=hidden;rotatable=0;points=[[0,0.5],[1,0.5]];portConstraint=eastwest;whiteSpace=wrap;html=1;fontSize=13;" parent="Ro5tH7595L1BBS2STnO7-83" vertex="1">
                    <mxGeometry y="138" width="280" height="26" as="geometry"/>
                </mxCell>
                <mxCell id="Ro5tH7595L1BBS2STnO7-90" value="+ add_output_event(): None" style="text;strokeColor=none;fillColor=none;align=left;verticalAlign=top;spacingLeft=4;spacingRight=4;overflow=hidden;rotatable=0;points=[[0,0.5],[1,0.5]];portConstraint=eastwest;whiteSpace=wrap;html=1;fontSize=13;" parent="Ro5tH7595L1BBS2STnO7-83" vertex="1">
                    <mxGeometry y="164" width="280" height="26" as="geometry"/>
                </mxCell>
                <mxCell id="Ro5tH7595L1BBS2STnO7-91" value="- get_waveform_from_sig(): StilWaveform" style="text;strokeColor=none;fillColor=none;align=left;verticalAlign=top;spacingLeft=4;spacingRight=4;overflow=hidden;rotatable=0;points=[[0,0.5],[1,0.5]];portConstraint=eastwest;whiteSpace=wrap;html=1;fontSize=13;" parent="Ro5tH7595L1BBS2STnO7-83" vertex="1">
                    <mxGeometry y="190" width="280" height="26" as="geometry"/>
                </mxCell>
                <mxCell id="Ro5tH7595L1BBS2STnO7-93" value="+ sort(): None" style="text;strokeColor=none;fillColor=none;align=left;verticalAlign=top;spacingLeft=4;spacingRight=4;overflow=hidden;rotatable=0;points=[[0,0.5],[1,0.5]];portConstraint=eastwest;whiteSpace=wrap;html=1;fontSize=13;" parent="Ro5tH7595L1BBS2STnO7-83" vertex="1">
                    <mxGeometry y="216" width="280" height="26" as="geometry"/>
                </mxCell>
                <mxCell id="Ro5tH7595L1BBS2STnO7-94" value="+ get_test_vecotr_str(): str" style="text;strokeColor=none;fillColor=none;align=left;verticalAlign=top;spacingLeft=4;spacingRight=4;overflow=hidden;rotatable=0;points=[[0,0.5],[1,0.5]];portConstraint=eastwest;whiteSpace=wrap;html=1;fontSize=13;" parent="Ro5tH7595L1BBS2STnO7-83" vertex="1">
                    <mxGeometry y="242" width="280" height="26" as="geometry"/>
                </mxCell>
                <mxCell id="Ro5tH7595L1BBS2STnO7-95" value="StilTest" style="swimlane;fontStyle=1;align=center;verticalAlign=top;childLayout=stackLayout;horizontal=1;startSize=26;horizontalStack=0;resizeParent=1;resizeParentMax=0;resizeLast=0;collapsible=1;marginBottom=0;whiteSpace=wrap;html=1;fillColor=#60a917;fontColor=#ffffff;strokeColor=#2D7600;fontSize=13;" parent="1" vertex="1">
                    <mxGeometry x="1400" y="-200" width="280" height="476" as="geometry"/>
                </mxCell>
                <mxCell id="Ro5tH7595L1BBS2STnO7-96" value="+ name: str" style="text;strokeColor=none;fillColor=none;align=left;verticalAlign=top;spacingLeft=4;spacingRight=4;overflow=hidden;rotatable=0;points=[[0,0.5],[1,0.5]];portConstraint=eastwest;whiteSpace=wrap;html=1;fontSize=13;" parent="Ro5tH7595L1BBS2STnO7-95" vertex="1">
                    <mxGeometry y="26" width="280" height="26" as="geometry"/>
                </mxCell>
                <mxCell id="Ro5tH7595L1BBS2STnO7-97" value="+ signal_dict: Dict[str, StilSignal]" style="text;strokeColor=none;fillColor=none;align=left;verticalAlign=top;spacingLeft=4;spacingRight=4;overflow=hidden;rotatable=0;points=[[0,0.5],[1,0.5]];portConstraint=eastwest;whiteSpace=wrap;html=1;fontSize=13;" parent="Ro5tH7595L1BBS2STnO7-95" vertex="1">
                    <mxGeometry y="52" width="280" height="26" as="geometry"/>
                </mxCell>
                <mxCell id="8ts7aHDEhac-k3moO0ko-28" value="+ sig_group_dict: Dict[str, StilSignalGroup]" style="text;strokeColor=none;fillColor=none;align=left;verticalAlign=top;spacingLeft=4;spacingRight=4;overflow=hidden;rotatable=0;points=[[0,0.5],[1,0.5]];portConstraint=eastwest;whiteSpace=wrap;html=1;fontSize=13;" parent="Ro5tH7595L1BBS2STnO7-95" vertex="1">
                    <mxGeometry y="78" width="280" height="26" as="geometry"/>
                </mxCell>
                <mxCell id="Ro5tH7595L1BBS2STnO7-98" value="+ waveform_table: StilWaveformTable" style="text;strokeColor=none;fillColor=none;align=left;verticalAlign=top;spacingLeft=4;spacingRight=4;overflow=hidden;rotatable=0;points=[[0,0.5],[1,0.5]];portConstraint=eastwest;whiteSpace=wrap;html=1;fontSize=13;" parent="Ro5tH7595L1BBS2STnO7-95" vertex="1">
                    <mxGeometry y="104" width="280" height="26" as="geometry"/>
                </mxCell>
                <mxCell id="Ro5tH7595L1BBS2STnO7-99" value="+ test_vector_dict: Dict[int, StilTestVector]" style="text;strokeColor=none;fillColor=none;align=left;verticalAlign=top;spacingLeft=4;spacingRight=4;overflow=hidden;rotatable=0;points=[[0,0.5],[1,0.5]];portConstraint=eastwest;whiteSpace=wrap;html=1;fontSize=13;" parent="Ro5tH7595L1BBS2STnO7-95" vertex="1">
                    <mxGeometry y="130" width="280" height="26" as="geometry"/>
                </mxCell>
                <mxCell id="Ro5tH7595L1BBS2STnO7-101" value="" style="line;strokeWidth=1;fillColor=none;align=left;verticalAlign=middle;spacingTop=-1;spacingLeft=3;spacingRight=3;rotatable=0;labelPosition=right;points=[];portConstraint=eastwest;strokeColor=inherit;fontSize=13;" parent="Ro5tH7595L1BBS2STnO7-95" vertex="1">
                    <mxGeometry y="156" width="280" height="8" as="geometry"/>
                </mxCell>
                <mxCell id="Ro5tH7595L1BBS2STnO7-102" value="+ set_name(): None" style="text;strokeColor=none;fillColor=none;align=left;verticalAlign=top;spacingLeft=4;spacingRight=4;overflow=hidden;rotatable=0;points=[[0,0.5],[1,0.5]];portConstraint=eastwest;whiteSpace=wrap;html=1;fontSize=13;" parent="Ro5tH7595L1BBS2STnO7-95" vertex="1">
                    <mxGeometry y="164" width="280" height="26" as="geometry"/>
                </mxCell>
                <mxCell id="Ro5tH7595L1BBS2STnO7-103" value="+ add_signal(): None" style="text;strokeColor=none;fillColor=none;align=left;verticalAlign=top;spacingLeft=4;spacingRight=4;overflow=hidden;rotatable=0;points=[[0,0.5],[1,0.5]];portConstraint=eastwest;whiteSpace=wrap;html=1;fontSize=13;" parent="Ro5tH7595L1BBS2STnO7-95" vertex="1">
                    <mxGeometry y="190" width="280" height="26" as="geometry"/>
                </mxCell>
                <mxCell id="Ro5tH7595L1BBS2STnO7-104" value="+ add_signal_group(): None" style="text;strokeColor=none;fillColor=none;align=left;verticalAlign=top;spacingLeft=4;spacingRight=4;overflow=hidden;rotatable=0;points=[[0,0.5],[1,0.5]];portConstraint=eastwest;whiteSpace=wrap;html=1;fontSize=13;" parent="Ro5tH7595L1BBS2STnO7-95" vertex="1">
                    <mxGeometry y="216" width="280" height="26" as="geometry"/>
                </mxCell>
                <mxCell id="Ro5tH7595L1BBS2STnO7-105" value="+ set_waveform_table(): None" style="text;strokeColor=none;fillColor=none;align=left;verticalAlign=top;spacingLeft=4;spacingRight=4;overflow=hidden;rotatable=0;points=[[0,0.5],[1,0.5]];portConstraint=eastwest;whiteSpace=wrap;html=1;fontSize=13;" parent="Ro5tH7595L1BBS2STnO7-95" vertex="1">
                    <mxGeometry y="242" width="280" height="26" as="geometry"/>
                </mxCell>
                <mxCell id="Ro5tH7595L1BBS2STnO7-106" value="+ add_waveform(): None" style="text;strokeColor=none;fillColor=none;align=left;verticalAlign=top;spacingLeft=4;spacingRight=4;overflow=hidden;rotatable=0;points=[[0,0.5],[1,0.5]];portConstraint=eastwest;whiteSpace=wrap;html=1;fontSize=13;" parent="Ro5tH7595L1BBS2STnO7-95" vertex="1">
                    <mxGeometry y="268" width="280" height="26" as="geometry"/>
                </mxCell>
                <mxCell id="Ro5tH7595L1BBS2STnO7-107" value="- add_input_waveform(): StilWaveform" style="text;strokeColor=none;fillColor=none;align=left;verticalAlign=top;spacingLeft=4;spacingRight=4;overflow=hidden;rotatable=0;points=[[0,0.5],[1,0.5]];portConstraint=eastwest;whiteSpace=wrap;html=1;fontSize=13;" parent="Ro5tH7595L1BBS2STnO7-95" vertex="1">
                    <mxGeometry y="294" width="280" height="26" as="geometry"/>
                </mxCell>
                <mxCell id="Ro5tH7595L1BBS2STnO7-108" value="- add_output_waveform(): StilWaveform" style="text;strokeColor=none;fillColor=none;align=left;verticalAlign=top;spacingLeft=4;spacingRight=4;overflow=hidden;rotatable=0;points=[[0,0.5],[1,0.5]];portConstraint=eastwest;whiteSpace=wrap;html=1;fontSize=13;" parent="Ro5tH7595L1BBS2STnO7-95" vertex="1">
                    <mxGeometry y="320" width="280" height="26" as="geometry"/>
                </mxCell>
                <mxCell id="Ro5tH7595L1BBS2STnO7-109" value="+ add_test_vector(): None" style="text;strokeColor=none;fillColor=none;align=left;verticalAlign=top;spacingLeft=4;spacingRight=4;overflow=hidden;rotatable=0;points=[[0,0.5],[1,0.5]];portConstraint=eastwest;whiteSpace=wrap;html=1;fontSize=13;" parent="Ro5tH7595L1BBS2STnO7-95" vertex="1">
                    <mxGeometry y="346" width="280" height="26" as="geometry"/>
                </mxCell>
                <mxCell id="Ro5tH7595L1BBS2STnO7-124" value="- add_input_test_vector(): None" style="text;strokeColor=none;fillColor=none;align=left;verticalAlign=top;spacingLeft=4;spacingRight=4;overflow=hidden;rotatable=0;points=[[0,0.5],[1,0.5]];portConstraint=eastwest;whiteSpace=wrap;html=1;fontSize=13;" parent="Ro5tH7595L1BBS2STnO7-95" vertex="1">
                    <mxGeometry y="372" width="280" height="26" as="geometry"/>
                </mxCell>
                <mxCell id="Ro5tH7595L1BBS2STnO7-125" value="- add_output_test_vector(): None" style="text;strokeColor=none;fillColor=none;align=left;verticalAlign=top;spacingLeft=4;spacingRight=4;overflow=hidden;rotatable=0;points=[[0,0.5],[1,0.5]];portConstraint=eastwest;whiteSpace=wrap;html=1;fontSize=13;" parent="Ro5tH7595L1BBS2STnO7-95" vertex="1">
                    <mxGeometry y="398" width="280" height="26" as="geometry"/>
                </mxCell>
                <mxCell id="Ro5tH7595L1BBS2STnO7-126" value="+ sort(): None" style="text;strokeColor=none;fillColor=none;align=left;verticalAlign=top;spacingLeft=4;spacingRight=4;overflow=hidden;rotatable=0;points=[[0,0.5],[1,0.5]];portConstraint=eastwest;whiteSpace=wrap;html=1;fontSize=13;" parent="Ro5tH7595L1BBS2STnO7-95" vertex="1">
                    <mxGeometry y="424" width="280" height="26" as="geometry"/>
                </mxCell>
                <mxCell id="Ro5tH7595L1BBS2STnO7-127" value="+ get_test_str(): None" style="text;strokeColor=none;fillColor=none;align=left;verticalAlign=top;spacingLeft=4;spacingRight=4;overflow=hidden;rotatable=0;points=[[0,0.5],[1,0.5]];portConstraint=eastwest;whiteSpace=wrap;html=1;fontSize=13;" parent="Ro5tH7595L1BBS2STnO7-95" vertex="1">
                    <mxGeometry y="450" width="280" height="26" as="geometry"/>
                </mxCell>
                <mxCell id="Ro5tH7595L1BBS2STnO7-128" value="StilParser" style="swimlane;fontStyle=1;align=center;verticalAlign=top;childLayout=stackLayout;horizontal=1;startSize=26;horizontalStack=0;resizeParent=1;resizeParentMax=0;resizeLast=0;collapsible=1;marginBottom=0;whiteSpace=wrap;html=1;fillColor=#1BA1E2;fontColor=#ffffff;strokeColor=#006EAF;fontSize=13;" parent="1" vertex="1">
                    <mxGeometry x="1800" y="-200" width="280" height="268" as="geometry"/>
                </mxCell>
                <mxCell id="Ro5tH7595L1BBS2STnO7-133" value="" style="line;strokeWidth=1;fillColor=none;align=left;verticalAlign=middle;spacingTop=-1;spacingLeft=3;spacingRight=3;rotatable=0;labelPosition=right;points=[];portConstraint=eastwest;strokeColor=inherit;fontSize=13;" parent="Ro5tH7595L1BBS2STnO7-128" vertex="1">
                    <mxGeometry y="26" width="280" height="8" as="geometry"/>
                </mxCell>
                <mxCell id="Ro5tH7595L1BBS2STnO7-134" value="+ get_tests_from_stil(): List[StilTest]" style="text;strokeColor=none;fillColor=none;align=left;verticalAlign=top;spacingLeft=4;spacingRight=4;overflow=hidden;rotatable=0;points=[[0,0.5],[1,0.5]];portConstraint=eastwest;whiteSpace=wrap;html=1;fontSize=13;" parent="Ro5tH7595L1BBS2STnO7-128" vertex="1">
                    <mxGeometry y="34" width="280" height="26" as="geometry"/>
                </mxCell>
                <mxCell id="Ro5tH7595L1BBS2STnO7-135" value="- parse_still_file(): StilTest" style="text;strokeColor=none;fillColor=none;align=left;verticalAlign=top;spacingLeft=4;spacingRight=4;overflow=hidden;rotatable=0;points=[[0,0.5],[1,0.5]];portConstraint=eastwest;whiteSpace=wrap;html=1;fontSize=13;" parent="Ro5tH7595L1BBS2STnO7-128" vertex="1">
                    <mxGeometry y="60" width="280" height="26" as="geometry"/>
                </mxCell>
                <mxCell id="Ro5tH7595L1BBS2STnO7-136" value="- parse_test_name(): Tuple[StilTest, int]" style="text;strokeColor=none;fillColor=none;align=left;verticalAlign=top;spacingLeft=4;spacingRight=4;overflow=hidden;rotatable=0;points=[[0,0.5],[1,0.5]];portConstraint=eastwest;whiteSpace=wrap;html=1;fontSize=13;" parent="Ro5tH7595L1BBS2STnO7-128" vertex="1">
                    <mxGeometry y="86" width="280" height="26" as="geometry"/>
                </mxCell>
                <mxCell id="Ro5tH7595L1BBS2STnO7-137" value="- parse_signals(): Tuple[StilTest, int]" style="text;strokeColor=none;fillColor=none;align=left;verticalAlign=top;spacingLeft=4;spacingRight=4;overflow=hidden;rotatable=0;points=[[0,0.5],[1,0.5]];portConstraint=eastwest;whiteSpace=wrap;html=1;fontSize=13;" parent="Ro5tH7595L1BBS2STnO7-128" vertex="1">
                    <mxGeometry y="112" width="280" height="26" as="geometry"/>
                </mxCell>
                <mxCell id="Ro5tH7595L1BBS2STnO7-138" value="- parse_signal_groups(): Tuple[StilTest, int]" style="text;strokeColor=none;fillColor=none;align=left;verticalAlign=top;spacingLeft=4;spacingRight=4;overflow=hidden;rotatable=0;points=[[0,0.5],[1,0.5]];portConstraint=eastwest;whiteSpace=wrap;html=1;fontSize=13;" parent="Ro5tH7595L1BBS2STnO7-128" vertex="1">
                    <mxGeometry y="138" width="280" height="26" as="geometry"/>
                </mxCell>
                <mxCell id="Ro5tH7595L1BBS2STnO7-139" value="- parse_waveform_table(): Tuple[StilTest, int]" style="text;strokeColor=none;fillColor=none;align=left;verticalAlign=top;spacingLeft=4;spacingRight=4;overflow=hidden;rotatable=0;points=[[0,0.5],[1,0.5]];portConstraint=eastwest;whiteSpace=wrap;html=1;fontSize=13;" parent="Ro5tH7595L1BBS2STnO7-128" vertex="1">
                    <mxGeometry y="164" width="280" height="26" as="geometry"/>
                </mxCell>
                <mxCell id="Ro5tH7595L1BBS2STnO7-140" value="- parse_waveforms(): Tuple[StilTest, int]" style="text;strokeColor=none;fillColor=none;align=left;verticalAlign=top;spacingLeft=4;spacingRight=4;overflow=hidden;rotatable=0;points=[[0,0.5],[1,0.5]];portConstraint=eastwest;whiteSpace=wrap;html=1;fontSize=13;" parent="Ro5tH7595L1BBS2STnO7-128" vertex="1">
                    <mxGeometry y="190" width="280" height="26" as="geometry"/>
                </mxCell>
                <mxCell id="Ro5tH7595L1BBS2STnO7-141" value="- parse_test_vector(): Tuple[StilTest, int]" style="text;strokeColor=none;fillColor=none;align=left;verticalAlign=top;spacingLeft=4;spacingRight=4;overflow=hidden;rotatable=0;points=[[0,0.5],[1,0.5]];portConstraint=eastwest;whiteSpace=wrap;html=1;fontSize=13;" parent="Ro5tH7595L1BBS2STnO7-128" vertex="1">
                    <mxGeometry y="216" width="280" height="26" as="geometry"/>
                </mxCell>
                <mxCell id="Ro5tH7595L1BBS2STnO7-142" value="- clean_str_list(): List[str]" style="text;strokeColor=none;fillColor=none;align=left;verticalAlign=top;spacingLeft=4;spacingRight=4;overflow=hidden;rotatable=0;points=[[0,0.5],[1,0.5]];portConstraint=eastwest;whiteSpace=wrap;html=1;fontSize=13;" parent="Ro5tH7595L1BBS2STnO7-128" vertex="1">
                    <mxGeometry y="242" width="280" height="26" as="geometry"/>
                </mxCell>
                <mxCell id="8ts7aHDEhac-k3moO0ko-1" value="&lt;b&gt;&lt;font style=&quot;color: rgb(255, 255, 255);&quot;&gt;Interface Class&lt;/font&gt;&lt;/b&gt;" style="shape=umlFrame;whiteSpace=wrap;html=1;pointerEvents=0;width=160;height=30;fillColor=#D80073;fontColor=#ffffff;strokeColor=#A50040;fontSize=13;strokeWidth=1;dashed=1;" parent="1" vertex="1">
                    <mxGeometry x="-1000" y="360" width="360" height="240" as="geometry"/>
                </mxCell>
                <mxCell id="8ts7aHDEhac-k3moO0ko-2" value="&lt;b&gt;&lt;font style=&quot;color: rgb(255, 255, 255);&quot;&gt;Enum Class&lt;/font&gt;&lt;/b&gt;" style="shape=umlFrame;whiteSpace=wrap;html=1;pointerEvents=0;width=160;height=30;fillColor=#f0a30a;fontColor=#000000;strokeColor=#BD7000;fontSize=13;strokeWidth=1;dashed=1;" parent="1" vertex="1">
                    <mxGeometry x="-1440" y="-280" width="800" height="600" as="geometry"/>
                </mxCell>
                <mxCell id="8ts7aHDEhac-k3moO0ko-3" value="&lt;b&gt;&lt;font style=&quot;color: rgb(255, 255, 255);&quot;&gt;Static Class&lt;/font&gt;&lt;/b&gt;" style="shape=umlFrame;whiteSpace=wrap;html=1;pointerEvents=0;width=160;height=30;fillColor=#1ba1e2;fontColor=#ffffff;strokeColor=#006EAF;fontSize=13;dashed=1;" parent="1" vertex="1">
                    <mxGeometry x="1760" y="-280" width="360" height="400" as="geometry"/>
                </mxCell>
                <mxCell id="8ts7aHDEhac-k3moO0ko-4" value="&lt;b&gt;&lt;font style=&quot;color: rgb(255, 255, 255);&quot;&gt;Class&lt;/font&gt;&lt;/b&gt;" style="shape=umlFrame;whiteSpace=wrap;html=1;pointerEvents=0;width=160;height=30;fillColor=#60a917;fontColor=#ffffff;strokeColor=#2D7600;fontSize=13;strokeWidth=1;dashed=1;" parent="1" vertex="1">
                    <mxGeometry x="-600" y="-280" width="2320" height="600" as="geometry"/>
                </mxCell>
                <mxCell id="8ts7aHDEhac-k3moO0ko-5" style="edgeStyle=orthogonalEdgeStyle;html=1;endArrow=diamondThin;endFill=0;startSize=16;endSize=16;fillColor=#60a917;strokeColor=#2D7600;strokeWidth=1;fontSize=13;" parent="1" source="Ro5tH7595L1BBS2STnO7-16" target="Ro5tH7595L1BBS2STnO7-1" edge="1">
                    <mxGeometry relative="1" as="geometry">
                        <Array as="points">
                            <mxPoint x="-240" y="70"/>
                            <mxPoint x="-240" y="10"/>
                        </Array>
                    </mxGeometry>
                </mxCell>
                <mxCell id="8ts7aHDEhac-k3moO0ko-6" style="edgeStyle=orthogonalEdgeStyle;shape=connector;rounded=1;html=1;strokeColor=#BD7000;align=center;verticalAlign=middle;fontFamily=Helvetica;fontSize=13;fontColor=default;labelBackgroundColor=default;startSize=10;endArrow=block;endFill=0;endSize=10;fillColor=#f0a30a;strokeWidth=1;" parent="1" source="Ro5tH7595L1BBS2STnO7-3" target="Ro5tH7595L1BBS2STnO7-11" edge="1">
                    <mxGeometry relative="1" as="geometry">
                        <Array as="points">
                            <mxPoint x="-680" y="39"/>
                            <mxPoint x="-680" y="10"/>
                        </Array>
                        <mxPoint x="-600" y="39.052631578947285" as="sourcePoint"/>
                    </mxGeometry>
                </mxCell>
                <mxCell id="8ts7aHDEhac-k3moO0ko-7" style="edgeStyle=orthogonalEdgeStyle;shape=connector;rounded=1;html=1;strokeColor=#BD7000;align=center;verticalAlign=middle;fontFamily=Helvetica;fontSize=13;fontColor=default;labelBackgroundColor=default;startSize=10;endArrow=block;endFill=0;endSize=10;fillColor=#f0a30a;strokeWidth=1;" parent="1" source="Ro5tH7595L1BBS2STnO7-8" target="Ro5tH7595L1BBS2STnO7-11" edge="1">
                    <mxGeometry relative="1" as="geometry">
                        <Array as="points">
                            <mxPoint x="-240" y="90"/>
                            <mxPoint x="-240" y="170"/>
                            <mxPoint x="-680" y="170"/>
                            <mxPoint x="-680" y="10"/>
                        </Array>
                    </mxGeometry>
                </mxCell>
                <mxCell id="8ts7aHDEhac-k3moO0ko-8" style="edgeStyle=orthogonalEdgeStyle;shape=connector;rounded=1;html=1;strokeColor=#BD7000;align=center;verticalAlign=middle;fontFamily=Helvetica;fontSize=13;fontColor=default;labelBackgroundColor=default;startSize=10;endArrow=block;endFill=0;endSize=10;fillColor=#f0a30a;strokeWidth=1;" parent="1" source="Ro5tH7595L1BBS2STnO7-20" target="Ro5tH7595L1BBS2STnO7-23" edge="1">
                    <mxGeometry relative="1" as="geometry">
                        <mxPoint x="-490" y="-280" as="targetPoint"/>
                        <Array as="points">
                            <mxPoint x="160" y="65"/>
                            <mxPoint x="160" y="-190"/>
                        </Array>
                    </mxGeometry>
                </mxCell>
                <mxCell id="8ts7aHDEhac-k3moO0ko-10" style="edgeStyle=orthogonalEdgeStyle;shape=connector;rounded=1;html=1;strokeColor=#2D7600;align=center;verticalAlign=middle;fontFamily=Helvetica;fontSize=13;fontColor=default;labelBackgroundColor=default;startSize=10;endArrow=block;endFill=0;endSize=10;fillColor=#60a917;strokeWidth=1;" parent="1" source="Ro5tH7595L1BBS2STnO7-18" target="Ro5tH7595L1BBS2STnO7-6" edge="1">
                    <mxGeometry relative="1" as="geometry">
                        <Array as="points">
                            <mxPoint x="120" y="91"/>
                            <mxPoint x="120" y="10"/>
                        </Array>
                    </mxGeometry>
                </mxCell>
                <mxCell id="8ts7aHDEhac-k3moO0ko-11" style="edgeStyle=orthogonalEdgeStyle;shape=connector;rounded=1;html=1;strokeColor=#2D7600;align=center;verticalAlign=middle;fontFamily=Helvetica;fontSize=13;fontColor=default;labelBackgroundColor=default;startSize=16;endArrow=diamondThin;endFill=0;endSize=16;fillColor=#60a917;strokeWidth=1;" parent="1" source="Ro5tH7595L1BBS2STnO7-57" target="Ro5tH7595L1BBS2STnO7-17" edge="1">
                    <mxGeometry relative="1" as="geometry">
                        <Array as="points">
                            <mxPoint x="520" y="91"/>
                            <mxPoint x="520" y="10"/>
                        </Array>
                    </mxGeometry>
                </mxCell>
                <mxCell id="8ts7aHDEhac-k3moO0ko-13" style="edgeStyle=orthogonalEdgeStyle;shape=connector;rounded=1;html=1;strokeColor=#A50040;align=center;verticalAlign=middle;fontFamily=Helvetica;fontSize=13;fontColor=default;labelBackgroundColor=default;startSize=10;endArrow=diamondThin;endFill=0;endSize=16;fillColor=#d80073;strokeWidth=1;" parent="1" source="Ro5tH7595L1BBS2STnO7-43" target="Ro5tH7595L1BBS2STnO7-63" edge="1">
                    <mxGeometry relative="1" as="geometry">
                        <Array as="points">
                            <mxPoint x="120" y="120"/>
                            <mxPoint x="120" y="457"/>
                        </Array>
                    </mxGeometry>
                </mxCell>
                <mxCell id="8ts7aHDEhac-k3moO0ko-14" style="edgeStyle=orthogonalEdgeStyle;shape=connector;rounded=1;html=1;strokeColor=#A50040;align=center;verticalAlign=middle;fontFamily=Helvetica;fontSize=13;fontColor=default;labelBackgroundColor=default;startSize=10;endArrow=diamondThin;endFill=0;endSize=16;fillColor=#d80073;strokeWidth=1;" parent="1" source="Ro5tH7595L1BBS2STnO7-44" target="Ro5tH7595L1BBS2STnO7-47" edge="1">
                    <mxGeometry relative="1" as="geometry">
                        <Array as="points">
                            <mxPoint x="160" y="143"/>
                            <mxPoint x="160" y="537"/>
                        </Array>
                    </mxGeometry>
                </mxCell>
                <mxCell id="8ts7aHDEhac-k3moO0ko-21" style="edgeStyle=orthogonalEdgeStyle;shape=connector;rounded=1;html=1;strokeColor=#2D7600;align=center;verticalAlign=middle;fontFamily=Helvetica;fontSize=13;fontColor=default;labelBackgroundColor=default;startSize=10;endArrow=block;endFill=0;endSize=10;fillColor=#60a917;" parent="1" source="Ro5tH7595L1BBS2STnO7-86" target="Ro5tH7595L1BBS2STnO7-53" edge="1">
                    <mxGeometry relative="1" as="geometry">
                        <Array as="points">
                            <mxPoint x="880" y="65"/>
                            <mxPoint x="880" y="10"/>
                        </Array>
                    </mxGeometry>
                </mxCell>
                <mxCell id="8ts7aHDEhac-k3moO0ko-23" style="edgeStyle=orthogonalEdgeStyle;shape=connector;rounded=1;html=1;strokeColor=#A50040;align=center;verticalAlign=middle;fontFamily=Helvetica;fontSize=13;fontColor=default;labelBackgroundColor=default;startSize=16;endArrow=diamondThin;endFill=0;endSize=16;fillColor=#d80073;" parent="1" source="Ro5tH7595L1BBS2STnO7-92" target="Ro5tH7595L1BBS2STnO7-47" edge="1">
                    <mxGeometry relative="1" as="geometry">
                        <Array as="points">
                            <mxPoint x="920" y="117"/>
                            <mxPoint x="920" y="537"/>
                        </Array>
                    </mxGeometry>
                </mxCell>
                <mxCell id="8ts7aHDEhac-k3moO0ko-27" style="edgeStyle=orthogonalEdgeStyle;shape=connector;rounded=1;html=1;strokeColor=#2D7600;align=center;verticalAlign=middle;fontFamily=Helvetica;fontSize=13;fontColor=default;labelBackgroundColor=default;startSize=16;endArrow=diamondThin;endFill=0;endSize=16;fillColor=#60a917;jumpStyle=arc;jumpSize=10;" parent="1" source="Ro5tH7595L1BBS2STnO7-97" target="Ro5tH7595L1BBS2STnO7-1" edge="1">
                    <mxGeometry relative="1" as="geometry">
                        <Array as="points">
                            <mxPoint x="-360" y="-135"/>
                        </Array>
                    </mxGeometry>
                </mxCell>
                <mxCell id="8ts7aHDEhac-k3moO0ko-29" style="edgeStyle=orthogonalEdgeStyle;shape=connector;rounded=1;html=1;strokeColor=#2D7600;align=center;verticalAlign=middle;fontFamily=Helvetica;fontSize=13;fontColor=default;labelBackgroundColor=default;startSize=16;endArrow=diamondThin;endFill=0;endSize=16;fillColor=#60a917;jumpStyle=arc;jumpSize=10;" parent="1" source="8ts7aHDEhac-k3moO0ko-28" target="Ro5tH7595L1BBS2STnO7-6" edge="1">
                    <mxGeometry relative="1" as="geometry">
                        <Array as="points">
                            <mxPoint y="-110"/>
                        </Array>
                    </mxGeometry>
                </mxCell>
                <mxCell id="8ts7aHDEhac-k3moO0ko-30" style="edgeStyle=orthogonalEdgeStyle;shape=connector;rounded=1;html=1;strokeColor=#2D7600;align=center;verticalAlign=middle;fontFamily=Helvetica;fontSize=13;fontColor=default;labelBackgroundColor=default;startSize=10;endArrow=block;endFill=0;endSize=10;fillColor=#60a917;" parent="1" source="Ro5tH7595L1BBS2STnO7-98" target="Ro5tH7595L1BBS2STnO7-53" edge="1">
                    <mxGeometry relative="1" as="geometry">
                        <Array as="points">
                            <mxPoint x="760" y="-83"/>
                        </Array>
                    </mxGeometry>
                </mxCell>
                <mxCell id="8ts7aHDEhac-k3moO0ko-31" style="edgeStyle=orthogonalEdgeStyle;shape=connector;rounded=1;html=1;strokeColor=#2D7600;align=center;verticalAlign=middle;fontFamily=Helvetica;fontSize=13;fontColor=default;labelBackgroundColor=default;startSize=16;endArrow=diamondThin;endFill=0;endSize=16;fillColor=#60a917;" parent="1" source="Ro5tH7595L1BBS2STnO7-99" target="Ro5tH7595L1BBS2STnO7-83" edge="1">
                    <mxGeometry relative="1" as="geometry">
                        <Array as="points">
                            <mxPoint x="1160" y="-57"/>
                        </Array>
                    </mxGeometry>
                </mxCell>
                <mxCell id="8ts7aHDEhac-k3moO0ko-33" value="&lt;div style=&quot;scrollbar-color: light-dark(#e2e2e2, #4b4b4b)&lt;br/&gt;&#x9;&#x9;&#x9;&#x9;&#x9;light-dark(#fbfbfb, var(--dark-panel-color));&quot;&gt;&lt;span style=&quot;background-color: transparent;&quot;&gt;Signals {&lt;/span&gt;&lt;br&gt;&lt;/div&gt;&lt;div style=&quot;scrollbar-color: light-dark(#e2e2e2, #4b4b4b)&lt;br/&gt;&#x9;&#x9;&#x9;&#x9;&#x9;light-dark(#fbfbfb, var(--dark-panel-color));&quot;&gt;&lt;span style=&quot;background-color: transparent;&quot;&gt;&amp;nbsp; &amp;nbsp; &quot;&lt;font style=&quot;color: rgb(96, 169, 23);&quot;&gt;jtag_tck&lt;/font&gt;&quot; &lt;font style=&quot;color: rgb(240, 163, 10);&quot;&gt;In&lt;/font&gt;;&lt;/span&gt;&lt;/div&gt;&lt;div style=&quot;scrollbar-color: light-dark(#e2e2e2, #4b4b4b)&lt;br/&gt;&#x9;&#x9;&#x9;&#x9;&#x9;light-dark(#fbfbfb, var(--dark-panel-color));&quot;&gt;&lt;span style=&quot;background-color: transparent;&quot;&gt;&amp;nbsp; &amp;nbsp; &quot;&lt;font style=&quot;color: rgb(96, 169, 23);&quot;&gt;jtag_tdi&lt;/font&gt;&quot; &lt;font style=&quot;color: rgb(240, 163, 10);&quot;&gt;In&lt;/font&gt;;&lt;/span&gt;&lt;/div&gt;&lt;div style=&quot;scrollbar-color: light-dark(#e2e2e2, #4b4b4b)&lt;br/&gt;&#x9;&#x9;&#x9;&#x9;&#x9;light-dark(#fbfbfb, var(--dark-panel-color));&quot;&gt;&lt;span style=&quot;background-color: transparent;&quot;&gt;&amp;nbsp; &amp;nbsp; &quot;&lt;font style=&quot;color: rgb(96, 169, 23);&quot;&gt;jtag_tms&lt;/font&gt;&quot; &lt;font style=&quot;color: rgb(240, 163, 10);&quot;&gt;In&lt;/font&gt;;&lt;/span&gt;&lt;/div&gt;&lt;div style=&quot;scrollbar-color: light-dark(#e2e2e2, #4b4b4b)&lt;br/&gt;&#x9;&#x9;&#x9;&#x9;&#x9;light-dark(#fbfbfb, var(--dark-panel-color));&quot;&gt;&lt;span style=&quot;background-color: transparent;&quot;&gt;&amp;nbsp; &amp;nbsp; &quot;&lt;font style=&quot;color: rgb(96, 169, 23);&quot;&gt;jtag_trst&lt;/font&gt;&quot; &lt;font style=&quot;color: rgb(240, 163, 10);&quot;&gt;In&lt;/font&gt;;&amp;nbsp;&lt;/span&gt;&lt;/div&gt;&lt;div style=&quot;scrollbar-color: light-dark(#e2e2e2, #4b4b4b)&lt;br/&gt;&#x9;&#x9;&#x9;&#x9;&#x9;light-dark(#fbfbfb, var(--dark-panel-color));&quot;&gt;&lt;span style=&quot;background-color: transparent;&quot;&gt;&amp;nbsp; &amp;nbsp; &quot;&lt;font style=&quot;color: rgb(96, 169, 23);&quot;&gt;jtag_tdo&lt;/font&gt;&quot; &lt;font style=&quot;color: rgb(240, 163, 10);&quot;&gt;Out&lt;/font&gt;;&lt;/span&gt;&lt;/div&gt;&lt;div style=&quot;scrollbar-color: light-dark(#e2e2e2, #4b4b4b)&lt;br/&gt;&#x9;&#x9;&#x9;&#x9;&#x9;light-dark(#fbfbfb, var(--dark-panel-color));&quot;&gt;&lt;span style=&quot;background-color: transparent;&quot;&gt;}&lt;/span&gt;&lt;/div&gt;" style="shape=note;whiteSpace=wrap;html=1;backgroundOutline=1;darkOpacity=0.05;fontFamily=Helvetica;fontSize=13;fontColor=default;labelBackgroundColor=none;align=left;spacing=15;verticalAlign=top;size=33;collapsible=1;noLabel=0;overflow=hidden;" parent="1" vertex="1">
                    <mxGeometry x="-560" y="-30" width="80" height="30" as="geometry">
                        <mxRectangle x="-560" y="-30" width="160" height="160" as="alternateBounds"/>
                    </mxGeometry>
                </mxCell>
                <mxCell id="8ts7aHDEhac-k3moO0ko-71" value="&lt;div style=&quot;scrollbar-color: light-dark(#e2e2e2, #4b4b4b)&lt;br/&gt;&#x9;&#x9;&#x9;&#x9;&#x9;light-dark(#fbfbfb, var(--dark-panel-color));&quot;&gt;&lt;div style=&quot;scrollbar-color: light-dark(#e2e2e2, #4b4b4b)&lt;br/&gt;&#x9;&#x9;&#x9;&#x9;&#x9;light-dark(#fbfbfb, var(--dark-panel-color));&quot;&gt;SignalGroups {&lt;/div&gt;&lt;div style=&quot;scrollbar-color: light-dark(#e2e2e2, #4b4b4b)&lt;br/&gt;&#x9;&#x9;&#x9;&#x9;&#x9;light-dark(#fbfbfb, var(--dark-panel-color));&quot;&gt;&lt;span style=&quot;background-color: transparent;&quot;&gt;&amp;nbsp; &amp;nbsp; &lt;font style=&quot;color: rgb(27, 161, 226);&quot;&gt;_pi_&lt;/font&gt; = &#39;&quot;&lt;font style=&quot;color: rgb(96, 169, 23);&quot;&gt;jtag_tck&lt;/font&gt;&quot; + \&lt;/span&gt;&lt;/div&gt;&lt;div style=&quot;scrollbar-color: light-dark(#e2e2e2, #4b4b4b)&lt;br/&gt;&#x9;&#x9;&#x9;&#x9;&#x9;light-dark(#fbfbfb, var(--dark-panel-color));&quot;&gt;&lt;span style=&quot;background-color: transparent;&quot;&gt;&amp;nbsp; &amp;nbsp; &amp;nbsp; &amp;nbsp; &amp;nbsp; &amp;nbsp; &amp;nbsp; &amp;nbsp; &quot;&lt;font style=&quot;color: rgb(96, 169, 23);&quot;&gt;jtag_tdi&lt;/font&gt;&quot; + \&lt;/span&gt;&lt;/div&gt;&lt;div style=&quot;scrollbar-color: light-dark(#e2e2e2, #4b4b4b)&lt;br/&gt;&#x9;&#x9;&#x9;&#x9;&#x9;light-dark(#fbfbfb, var(--dark-panel-color));&quot;&gt;&lt;span style=&quot;background-color: transparent;&quot;&gt;&amp;nbsp; &amp;nbsp; &amp;nbsp; &amp;nbsp; &amp;nbsp; &amp;nbsp; &amp;nbsp; &amp;nbsp; &quot;&lt;font style=&quot;color: rgb(96, 169, 23);&quot;&gt;jtag_tms&lt;/font&gt;&quot; + \&lt;/span&gt;&lt;/div&gt;&lt;div style=&quot;scrollbar-color: light-dark(#e2e2e2, #4b4b4b)&lt;br/&gt;&#x9;&#x9;&#x9;&#x9;&#x9;light-dark(#fbfbfb, var(--dark-panel-color));&quot;&gt;&lt;span style=&quot;background-color: transparent;&quot;&gt;&amp;nbsp; &amp;nbsp; &amp;nbsp; &amp;nbsp; &amp;nbsp; &amp;nbsp; &amp;nbsp; &amp;nbsp; &quot;&lt;font style=&quot;color: rgb(96, 169, 23);&quot;&gt;jtag_trst&lt;/font&gt;&quot;&#39;;&lt;/span&gt;&lt;/div&gt;&lt;div style=&quot;scrollbar-color: light-dark(#e2e2e2, #4b4b4b)&lt;br/&gt;&#x9;&#x9;&#x9;&#x9;&#x9;light-dark(#fbfbfb, var(--dark-panel-color));&quot;&gt;&amp;nbsp; &amp;nbsp; &lt;font style=&quot;color: rgb(27, 161, 226);&quot;&gt;_po_&lt;/font&gt; = &#39;&quot;&lt;font style=&quot;color: rgb(96, 169, 23);&quot;&gt;jtag_tdo&lt;/font&gt;&quot;&#39;;&lt;/div&gt;&lt;div style=&quot;scrollbar-color: light-dark(#e2e2e2, #4b4b4b)&lt;br/&gt;&#x9;&#x9;&#x9;&#x9;&#x9;light-dark(#fbfbfb, var(--dark-panel-color));&quot;&gt;&lt;span style=&quot;background-color: transparent;&quot;&gt;&amp;nbsp; &amp;nbsp; &lt;font style=&quot;color: rgb(27, 161, 226);&quot;&gt;input_time_gen_0&lt;/font&gt; = &#39;&quot;&lt;font style=&quot;color: rgb(96, 169, 23);&quot;&gt;jtag_tdi&lt;/font&gt;&quot; + \&lt;/span&gt;&lt;/div&gt;&lt;div style=&quot;scrollbar-color: light-dark(#e2e2e2, #4b4b4b)&lt;br/&gt;&#x9;&#x9;&#x9;&#x9;&#x9;light-dark(#fbfbfb, var(--dark-panel-color));&quot;&gt;&amp;nbsp; &amp;nbsp; &amp;nbsp; &amp;nbsp; &amp;nbsp; &amp;nbsp; &amp;nbsp; &amp;nbsp; &amp;nbsp; &amp;nbsp; &amp;nbsp; &amp;nbsp; &amp;nbsp; &amp;nbsp; &amp;nbsp; &amp;nbsp; &amp;nbsp; &amp;nbsp; &amp;nbsp; &quot;&lt;font style=&quot;color: rgb(96, 169, 23);&quot;&gt;jtag_tms&lt;/font&gt;&quot; + \&lt;/div&gt;&lt;div style=&quot;scrollbar-color: light-dark(#e2e2e2, #4b4b4b)&lt;br/&gt;&#x9;&#x9;&#x9;&#x9;&#x9;light-dark(#fbfbfb, var(--dark-panel-color));&quot;&gt;&amp;nbsp; &amp;nbsp; &amp;nbsp; &amp;nbsp; &amp;nbsp; &amp;nbsp; &amp;nbsp; &amp;nbsp; &amp;nbsp; &amp;nbsp; &amp;nbsp; &amp;nbsp; &amp;nbsp; &amp;nbsp; &amp;nbsp; &amp;nbsp; &amp;nbsp; &amp;nbsp; &amp;nbsp; &quot;&lt;font style=&quot;color: rgb(96, 169, 23);&quot;&gt;jtag_trst&lt;/font&gt;&quot;&#39;;&lt;/div&gt;&lt;div style=&quot;scrollbar-color: light-dark(#e2e2e2, #4b4b4b)&lt;br/&gt;&#x9;&#x9;&#x9;&#x9;&#x9;light-dark(#fbfbfb, var(--dark-panel-color));&quot;&gt;&lt;span style=&quot;background-color: transparent;&quot;&gt;&amp;nbsp; &amp;nbsp; &lt;font style=&quot;color: rgb(27, 161, 226);&quot;&gt;input_time_gen_1&lt;/font&gt; = &#39;&quot;&lt;font style=&quot;color: rgb(96, 169, 23);&quot;&gt;jtag_tck&lt;/font&gt;&quot;&#39;;&lt;/span&gt;&lt;/div&gt;&lt;div style=&quot;scrollbar-color: light-dark(#e2e2e2, #4b4b4b)&lt;br/&gt;&#x9;&#x9;&#x9;&#x9;&#x9;light-dark(#fbfbfb, var(--dark-panel-color));&quot;&gt;}&lt;/div&gt;&lt;/div&gt;" style="shape=note;whiteSpace=wrap;html=1;backgroundOutline=1;darkOpacity=0.05;fontFamily=Helvetica;fontSize=13;fontColor=default;labelBackgroundColor=none;align=left;spacing=15;verticalAlign=top;size=33;collapsible=1;noLabel=0;overflow=hidden;" parent="1" vertex="1">
                    <mxGeometry x="-210" y="-30" width="80" height="30" as="geometry">
                        <mxRectangle x="-210" y="-30" width="250" height="210" as="alternateBounds"/>
                    </mxGeometry>
                </mxCell>
                <mxCell id="8ts7aHDEhac-k3moO0ko-72" value="&lt;div style=&quot;scrollbar-color: light-dark(#e2e2e2, #4b4b4b)&lt;br/&gt;&#x9;&#x9;&#x9;&#x9;&#x9;light-dark(#fbfbfb, var(--dark-panel-color));&quot;&gt;&lt;div style=&quot;scrollbar-color: light-dark(#e2e2e2, #4b4b4b)&lt;br/&gt;&#x9;&#x9;&#x9;&#x9;&#x9;light-dark(#fbfbfb, var(--dark-panel-color));&quot;&gt;&lt;div style=&quot;scrollbar-color: light-dark(#e2e2e2, #4b4b4b)&lt;br/&gt;&#x9;&#x9;&#x9;&#x9;&#x9;light-dark(#fbfbfb, var(--dark-panel-color));&quot;&gt;WaveformTable &lt;font style=&quot;color: rgb(96, 169, 23);&quot;&gt;tset_gen_tp1&lt;/font&gt;&amp;nbsp; {&lt;/div&gt;&lt;div style=&quot;scrollbar-color: light-dark(#e2e2e2, #4b4b4b)&lt;br/&gt;&#x9;&#x9;&#x9;&#x9;&#x9;light-dark(#fbfbfb, var(--dark-panel-color));&quot;&gt;&lt;span style=&quot;background-color: transparent;&quot;&gt;&amp;nbsp; &amp;nbsp; Period &#39;&lt;font style=&quot;color: rgb(216, 0, 115);&quot;&gt;100ns&lt;/font&gt;&#39; ;&lt;/span&gt;&lt;/div&gt;&lt;div style=&quot;scrollbar-color: light-dark(#e2e2e2, #4b4b4b)&lt;br/&gt;&#x9;&#x9;&#x9;&#x9;&#x9;light-dark(#fbfbfb, var(--dark-panel-color));&quot;&gt;&lt;span style=&quot;background-color: transparent;&quot;&gt;&amp;nbsp; &amp;nbsp; Waveforms&amp;nbsp; {&lt;/span&gt;&lt;/div&gt;&lt;div style=&quot;scrollbar-color: light-dark(#e2e2e2, #4b4b4b)&lt;br/&gt;&#x9;&#x9;&#x9;&#x9;&#x9;light-dark(#fbfbfb, var(--dark-panel-color));&quot;&gt;&lt;span style=&quot;background-color: transparent;&quot;&gt;&amp;nbsp; &amp;nbsp; &amp;nbsp; &amp;nbsp; &lt;font style=&quot;color: rgb(27, 161, 226);&quot;&gt;input_time_gen_0&lt;/font&gt;&amp;nbsp; {&lt;/span&gt;&lt;/div&gt;&lt;div style=&quot;scrollbar-color: light-dark(#e2e2e2, #4b4b4b)&lt;br/&gt;&#x9;&#x9;&#x9;&#x9;&#x9;light-dark(#fbfbfb, var(--dark-panel-color));&quot;&gt;&lt;span style=&quot;background-color: transparent;&quot;&gt;&amp;nbsp; &amp;nbsp; &amp;nbsp; &amp;nbsp; &amp;nbsp; &amp;nbsp; &lt;font style=&quot;color: rgb(216, 0, 115);&quot;&gt;01N&lt;/font&gt; {&lt;/span&gt;&lt;/div&gt;&lt;div style=&quot;scrollbar-color: light-dark(#e2e2e2, #4b4b4b)&lt;br/&gt;&#x9;&#x9;&#x9;&#x9;&#x9;light-dark(#fbfbfb, var(--dark-panel-color));&quot;&gt;&lt;span style=&quot;background-color: transparent;&quot;&gt;&amp;nbsp; &amp;nbsp; &amp;nbsp; &amp;nbsp; &amp;nbsp; &amp;nbsp; &amp;nbsp; &amp;nbsp; &#39;&lt;font style=&quot;color: rgb(96, 169, 23);&quot;&gt;0ns&lt;/font&gt;&#39; &lt;font style=&quot;color: rgb(240, 163, 10);&quot;&gt;D/U/N&lt;/font&gt;;&lt;/span&gt;&lt;/div&gt;&lt;div style=&quot;scrollbar-color: light-dark(#e2e2e2, #4b4b4b)&lt;br/&gt;&#x9;&#x9;&#x9;&#x9;&#x9;light-dark(#fbfbfb, var(--dark-panel-color));&quot;&gt;&lt;span style=&quot;background-color: transparent;&quot;&gt;&amp;nbsp; &amp;nbsp; &amp;nbsp; &amp;nbsp; &amp;nbsp; &amp;nbsp; }&lt;/span&gt;&lt;/div&gt;&lt;div style=&quot;scrollbar-color: light-dark(#e2e2e2, #4b4b4b)&lt;br/&gt;&#x9;&#x9;&#x9;&#x9;&#x9;light-dark(#fbfbfb, var(--dark-panel-color));&quot;&gt;&lt;span style=&quot;background-color: transparent;&quot;&gt;&amp;nbsp; &amp;nbsp; &amp;nbsp; &amp;nbsp; }&lt;/span&gt;&lt;/div&gt;&lt;div style=&quot;scrollbar-color: light-dark(#e2e2e2, #4b4b4b)&lt;br/&gt;&#x9;&#x9;&#x9;&#x9;&#x9;light-dark(#fbfbfb, var(--dark-panel-color));&quot;&gt;&amp;nbsp; &amp;nbsp; &amp;nbsp; &amp;nbsp; &lt;font style=&quot;color: rgb(27, 161, 226);&quot;&gt;input_time_gen_1&lt;/font&gt;&amp;nbsp; {&lt;/div&gt;&lt;div style=&quot;scrollbar-color: light-dark(#e2e2e2, #4b4b4b)&lt;br/&gt;&#x9;&#x9;&#x9;&#x9;&#x9;light-dark(#fbfbfb, var(--dark-panel-color));&quot;&gt;&amp;nbsp; &amp;nbsp; &amp;nbsp; &amp;nbsp; &amp;nbsp; &amp;nbsp; &lt;font style=&quot;color: rgb(216, 0, 115);&quot;&gt;01&lt;/font&gt; {&lt;/div&gt;&lt;div style=&quot;scrollbar-color: light-dark(#e2e2e2, #4b4b4b)&lt;br/&gt;&#x9;&#x9;&#x9;&#x9;&#x9;light-dark(#fbfbfb, var(--dark-panel-color));&quot;&gt;&amp;nbsp; &amp;nbsp; &amp;nbsp; &amp;nbsp; &amp;nbsp; &amp;nbsp; &amp;nbsp; &amp;nbsp; &#39;&lt;font style=&quot;color: rgb(96, 169, 23);&quot;&gt;0ns&lt;/font&gt;&#39; &lt;font style=&quot;color: rgb(240, 163, 10);&quot;&gt;D&lt;/font&gt;;&lt;/div&gt;&lt;div style=&quot;scrollbar-color: light-dark(#e2e2e2, #4b4b4b)&lt;br/&gt;&#x9;&#x9;&#x9;&#x9;&#x9;light-dark(#fbfbfb, var(--dark-panel-color));&quot;&gt;&amp;nbsp; &amp;nbsp; &amp;nbsp; &amp;nbsp; &amp;nbsp; &amp;nbsp; &amp;nbsp; &amp;nbsp;&amp;nbsp;&lt;span style=&quot;background-color: transparent;&quot;&gt;&#39;&lt;font style=&quot;color: rgb(96, 169, 23);&quot;&gt;25ns&lt;/font&gt;&#39; &lt;font style=&quot;color: rgb(240, 163, 10);&quot;&gt;D/U&lt;/font&gt;;&lt;/span&gt;&lt;/div&gt;&lt;div style=&quot;scrollbar-color: light-dark(#e2e2e2, #4b4b4b)&lt;br/&gt;&#x9;&#x9;&#x9;&#x9;&#x9;light-dark(#fbfbfb, var(--dark-panel-color));&quot;&gt;&lt;span style=&quot;background-color: transparent;&quot;&gt;&amp;nbsp; &amp;nbsp; &amp;nbsp; &amp;nbsp; &amp;nbsp; &amp;nbsp; &amp;nbsp; &amp;nbsp; &#39;&lt;font style=&quot;color: rgb(96, 169, 23);&quot;&gt;75ns&lt;/font&gt;&#39; &lt;font style=&quot;color: rgb(240, 163, 10);&quot;&gt;D&lt;/font&gt;;&lt;/span&gt;&lt;/div&gt;&lt;div style=&quot;scrollbar-color: light-dark(#e2e2e2, #4b4b4b)&lt;br/&gt;&#x9;&#x9;&#x9;&#x9;&#x9;light-dark(#fbfbfb, var(--dark-panel-color));&quot;&gt;&lt;span style=&quot;background-color: transparent;&quot;&gt;&amp;nbsp; &amp;nbsp; &amp;nbsp; &amp;nbsp; &amp;nbsp; &amp;nbsp; }&lt;/span&gt;&lt;/div&gt;&lt;div style=&quot;scrollbar-color: light-dark(#e2e2e2, #4b4b4b)&lt;br/&gt;&#x9;&#x9;&#x9;&#x9;&#x9;light-dark(#fbfbfb, var(--dark-panel-color));&quot;&gt;&lt;span style=&quot;background-color: transparent;&quot;&gt;&amp;nbsp; &amp;nbsp; &amp;nbsp; &amp;nbsp; }&lt;/span&gt;&lt;/div&gt;&lt;div style=&quot;scrollbar-color: light-dark(#e2e2e2, #4b4b4b)&lt;br/&gt;&#x9;&#x9;&#x9;&#x9;&#x9;light-dark(#fbfbfb, var(--dark-panel-color));&quot;&gt;&amp;nbsp; &amp;nbsp; &amp;nbsp; &amp;nbsp; &lt;font style=&quot;color: rgb(27, 161, 226);&quot;&gt;_po_&lt;/font&gt; {&lt;/div&gt;&lt;div style=&quot;scrollbar-color: light-dark(#e2e2e2, #4b4b4b)&lt;br/&gt;&#x9;&#x9;&#x9;&#x9;&#x9;light-dark(#fbfbfb, var(--dark-panel-color));&quot;&gt;&amp;nbsp; &amp;nbsp; &amp;nbsp; &amp;nbsp; &amp;nbsp; &amp;nbsp; &lt;font style=&quot;color: rgb(216, 0, 115);&quot;&gt;LHXT&lt;/font&gt; {&lt;/div&gt;&lt;div style=&quot;scrollbar-color: light-dark(#e2e2e2, #4b4b4b)&lt;br/&gt;&#x9;&#x9;&#x9;&#x9;&#x9;light-dark(#fbfbfb, var(--dark-panel-color));&quot;&gt;&amp;nbsp; &amp;nbsp; &amp;nbsp; &amp;nbsp; &amp;nbsp; &amp;nbsp; &amp;nbsp; &amp;nbsp; &#39;&lt;font style=&quot;color: rgb(96, 169, 23);&quot;&gt;74ns&lt;/font&gt;&#39; &lt;font style=&quot;color: rgb(240, 163, 10);&quot;&gt;L/H/X/T&lt;/font&gt;;&lt;/div&gt;&lt;div style=&quot;scrollbar-color: light-dark(#e2e2e2, #4b4b4b)&lt;br/&gt;&#x9;&#x9;&#x9;&#x9;&#x9;light-dark(#fbfbfb, var(--dark-panel-color));&quot;&gt;&amp;nbsp; &amp;nbsp; &amp;nbsp; &amp;nbsp; &amp;nbsp; &amp;nbsp; }&lt;/div&gt;&lt;div style=&quot;scrollbar-color: light-dark(#e2e2e2, #4b4b4b)&lt;br/&gt;&#x9;&#x9;&#x9;&#x9;&#x9;light-dark(#fbfbfb, var(--dark-panel-color));&quot;&gt;&amp;nbsp; &amp;nbsp; &amp;nbsp; &amp;nbsp; }&lt;/div&gt;&lt;div style=&quot;scrollbar-color: light-dark(#e2e2e2, #4b4b4b)&lt;br/&gt;&#x9;&#x9;&#x9;&#x9;&#x9;light-dark(#fbfbfb, var(--dark-panel-color));&quot;&gt;&amp;nbsp; &amp;nbsp; }&lt;/div&gt;&lt;div style=&quot;scrollbar-color: light-dark(#e2e2e2, #4b4b4b)&lt;br/&gt;&#x9;&#x9;&#x9;&#x9;&#x9;light-dark(#fbfbfb, var(--dark-panel-color));&quot;&gt;&lt;span style=&quot;background-color: transparent;&quot;&gt;}&lt;/span&gt;&lt;/div&gt;&lt;/div&gt;&lt;/div&gt;" style="shape=note;whiteSpace=wrap;html=1;backgroundOutline=1;darkOpacity=0.05;fontFamily=Helvetica;fontSize=13;fontColor=default;labelBackgroundColor=none;align=left;spacing=15;verticalAlign=top;size=33;collapsible=1;noLabel=0;overflow=hidden;" parent="1" vertex="1">
                    <mxGeometry x="560" y="-30" width="80" height="30" as="geometry">
                        <mxRectangle x="560" y="-30" width="240" height="380" as="alternateBounds"/>
                    </mxGeometry>
                </mxCell>
                <mxCell id="8ts7aHDEhac-k3moO0ko-73" value="&lt;div style=&quot;scrollbar-color: light-dark(#e2e2e2, #4b4b4b)&lt;br/&gt;&#x9;&#x9;&#x9;&#x9;&#x9;light-dark(#fbfbfb, var(--dark-panel-color));&quot;&gt;&lt;div style=&quot;scrollbar-color: light-dark(#e2e2e2, #4b4b4b)&lt;br/&gt;&#x9;&#x9;&#x9;&#x9;&#x9;light-dark(#fbfbfb, var(--dark-panel-color));&quot;&gt;&lt;div style=&quot;scrollbar-color: light-dark(#e2e2e2, #4b4b4b)&lt;br/&gt;&#x9;&#x9;&#x9;&#x9;&#x9;light-dark(#fbfbfb, var(--dark-panel-color));&quot;&gt;&lt;span style=&quot;background-color: transparent;&quot;&gt;Waveforms&amp;nbsp; {&lt;/span&gt;&lt;br&gt;&lt;/div&gt;&lt;div style=&quot;scrollbar-color: light-dark(#e2e2e2, #4b4b4b)&lt;br/&gt;&#x9;&#x9;&#x9;&#x9;&#x9;light-dark(#fbfbfb, var(--dark-panel-color));&quot;&gt;&lt;span style=&quot;background-color: transparent;&quot;&gt;&amp;nbsp; &amp;nbsp; &lt;font style=&quot;color: rgb(27, 161, 226);&quot;&gt;input_time_gen_0&lt;/font&gt;&amp;nbsp; {&lt;/span&gt;&lt;/div&gt;&lt;div style=&quot;scrollbar-color: light-dark(#e2e2e2, #4b4b4b)&lt;br/&gt;&#x9;&#x9;&#x9;&#x9;&#x9;light-dark(#fbfbfb, var(--dark-panel-color));&quot;&gt;&lt;span style=&quot;background-color: transparent;&quot;&gt;&amp;nbsp; &amp;nbsp; &amp;nbsp; &amp;nbsp; &lt;font style=&quot;color: rgb(216, 0, 115);&quot;&gt;01N&lt;/font&gt; {&lt;/span&gt;&lt;/div&gt;&lt;div style=&quot;scrollbar-color: light-dark(#e2e2e2, #4b4b4b)&lt;br/&gt;&#x9;&#x9;&#x9;&#x9;&#x9;light-dark(#fbfbfb, var(--dark-panel-color));&quot;&gt;&lt;span style=&quot;background-color: transparent;&quot;&gt;&amp;nbsp; &amp;nbsp; &amp;nbsp; &amp;nbsp; &amp;nbsp; &amp;nbsp; &#39;&lt;font style=&quot;color: rgb(96, 169, 23);&quot;&gt;0ns&lt;/font&gt;&#39; &lt;font style=&quot;color: rgb(240, 163, 10);&quot;&gt;D/U/N&lt;/font&gt;;&lt;/span&gt;&lt;/div&gt;&lt;div style=&quot;scrollbar-color: light-dark(#e2e2e2, #4b4b4b)&lt;br/&gt;&#x9;&#x9;&#x9;&#x9;&#x9;light-dark(#fbfbfb, var(--dark-panel-color));&quot;&gt;&lt;span style=&quot;background-color: transparent;&quot;&gt;&amp;nbsp; &amp;nbsp; &amp;nbsp; &amp;nbsp; }&lt;/span&gt;&lt;/div&gt;&lt;div style=&quot;scrollbar-color: light-dark(#e2e2e2, #4b4b4b)&lt;br/&gt;&#x9;&#x9;&#x9;&#x9;&#x9;light-dark(#fbfbfb, var(--dark-panel-color));&quot;&gt;&lt;span style=&quot;background-color: transparent;&quot;&gt;&amp;nbsp; &amp;nbsp; }&lt;/span&gt;&lt;/div&gt;&lt;div style=&quot;scrollbar-color: light-dark(#e2e2e2, #4b4b4b)&lt;br/&gt;&#x9;&#x9;&#x9;&#x9;&#x9;light-dark(#fbfbfb, var(--dark-panel-color));&quot;&gt;&amp;nbsp; &amp;nbsp; &lt;font style=&quot;color: rgb(27, 161, 226);&quot;&gt;input_time_gen_1&lt;/font&gt;&amp;nbsp; {&lt;/div&gt;&lt;div style=&quot;scrollbar-color: light-dark(#e2e2e2, #4b4b4b)&lt;br/&gt;&#x9;&#x9;&#x9;&#x9;&#x9;light-dark(#fbfbfb, var(--dark-panel-color));&quot;&gt;&amp;nbsp; &amp;nbsp; &amp;nbsp; &amp;nbsp; &lt;font style=&quot;color: rgb(216, 0, 115);&quot;&gt;01&lt;/font&gt; {&lt;/div&gt;&lt;div style=&quot;scrollbar-color: light-dark(#e2e2e2, #4b4b4b)&lt;br/&gt;&#x9;&#x9;&#x9;&#x9;&#x9;light-dark(#fbfbfb, var(--dark-panel-color));&quot;&gt;&amp;nbsp; &amp;nbsp; &amp;nbsp; &amp;nbsp; &amp;nbsp; &amp;nbsp; &#39;&lt;font style=&quot;color: rgb(96, 169, 23);&quot;&gt;0ns&lt;/font&gt;&#39; &lt;font style=&quot;color: rgb(240, 163, 10);&quot;&gt;D&lt;/font&gt;;&lt;/div&gt;&lt;div style=&quot;scrollbar-color: light-dark(#e2e2e2, #4b4b4b)&lt;br/&gt;&#x9;&#x9;&#x9;&#x9;&#x9;light-dark(#fbfbfb, var(--dark-panel-color));&quot;&gt;&amp;nbsp; &amp;nbsp; &amp;nbsp; &amp;nbsp; &amp;nbsp; &amp;nbsp; &lt;span style=&quot;background-color: transparent;&quot;&gt;&#39;&lt;font style=&quot;color: rgb(96, 169, 23);&quot;&gt;25ns&lt;/font&gt;&#39; &lt;font style=&quot;color: rgb(240, 163, 10);&quot;&gt;D/U&lt;/font&gt;;&lt;/span&gt;&lt;/div&gt;&lt;div style=&quot;scrollbar-color: light-dark(#e2e2e2, #4b4b4b)&lt;br/&gt;&#x9;&#x9;&#x9;&#x9;&#x9;light-dark(#fbfbfb, var(--dark-panel-color));&quot;&gt;&lt;span style=&quot;background-color: transparent;&quot;&gt;&amp;nbsp; &amp;nbsp; &amp;nbsp; &amp;nbsp; &amp;nbsp; &amp;nbsp; &#39;&lt;font style=&quot;color: rgb(96, 169, 23);&quot;&gt;75ns&lt;/font&gt;&#39; &lt;font style=&quot;color: rgb(240, 163, 10);&quot;&gt;D&lt;/font&gt;;&lt;/span&gt;&lt;/div&gt;&lt;div style=&quot;scrollbar-color: light-dark(#e2e2e2, #4b4b4b)&lt;br/&gt;&#x9;&#x9;&#x9;&#x9;&#x9;light-dark(#fbfbfb, var(--dark-panel-color));&quot;&gt;&lt;span style=&quot;background-color: transparent;&quot;&gt;&amp;nbsp; &amp;nbsp; &amp;nbsp; &amp;nbsp; }&lt;/span&gt;&lt;/div&gt;&lt;div style=&quot;scrollbar-color: light-dark(#e2e2e2, #4b4b4b)&lt;br/&gt;&#x9;&#x9;&#x9;&#x9;&#x9;light-dark(#fbfbfb, var(--dark-panel-color));&quot;&gt;&lt;span style=&quot;background-color: transparent;&quot;&gt;&amp;nbsp; &amp;nbsp; }&lt;/span&gt;&lt;/div&gt;&lt;div style=&quot;scrollbar-color: light-dark(#e2e2e2, #4b4b4b)&lt;br/&gt;&#x9;&#x9;&#x9;&#x9;&#x9;light-dark(#fbfbfb, var(--dark-panel-color));&quot;&gt;&amp;nbsp; &amp;nbsp; &lt;font style=&quot;color: rgb(27, 161, 226);&quot;&gt;_po_&lt;/font&gt; {&lt;/div&gt;&lt;div style=&quot;scrollbar-color: light-dark(#e2e2e2, #4b4b4b)&lt;br/&gt;&#x9;&#x9;&#x9;&#x9;&#x9;light-dark(#fbfbfb, var(--dark-panel-color));&quot;&gt;&amp;nbsp; &amp;nbsp; &amp;nbsp; &amp;nbsp; &lt;font style=&quot;color: rgb(216, 0, 115);&quot;&gt;LHXT&lt;/font&gt; {&lt;/div&gt;&lt;div style=&quot;scrollbar-color: light-dark(#e2e2e2, #4b4b4b)&lt;br/&gt;&#x9;&#x9;&#x9;&#x9;&#x9;light-dark(#fbfbfb, var(--dark-panel-color));&quot;&gt;&amp;nbsp; &amp;nbsp; &amp;nbsp; &amp;nbsp; &amp;nbsp; &amp;nbsp; &#39;&lt;font style=&quot;color: rgb(96, 169, 23);&quot;&gt;74ns&lt;/font&gt;&#39; &lt;font style=&quot;color: rgb(240, 163, 10);&quot;&gt;L/H/X/T&lt;/font&gt;;&lt;/div&gt;&lt;div style=&quot;scrollbar-color: light-dark(#e2e2e2, #4b4b4b)&lt;br/&gt;&#x9;&#x9;&#x9;&#x9;&#x9;light-dark(#fbfbfb, var(--dark-panel-color));&quot;&gt;&amp;nbsp; &amp;nbsp; &amp;nbsp; &amp;nbsp; }&lt;/div&gt;&lt;div style=&quot;scrollbar-color: light-dark(#e2e2e2, #4b4b4b)&lt;br/&gt;&#x9;&#x9;&#x9;&#x9;&#x9;light-dark(#fbfbfb, var(--dark-panel-color));&quot;&gt;&amp;nbsp; &amp;nbsp; }&lt;/div&gt;&lt;div style=&quot;scrollbar-color: light-dark(#e2e2e2, #4b4b4b)&lt;br/&gt;&#x9;&#x9;&#x9;&#x9;&#x9;light-dark(#fbfbfb, var(--dark-panel-color));&quot;&gt;}&lt;/div&gt;&lt;/div&gt;&lt;/div&gt;" style="shape=note;whiteSpace=wrap;html=1;backgroundOutline=1;darkOpacity=0.05;fontFamily=Helvetica;fontSize=13;fontColor=default;labelBackgroundColor=none;align=left;spacing=15;verticalAlign=top;size=33;collapsible=1;noLabel=0;overflow=hidden;" parent="1" vertex="1">
                    <mxGeometry x="200" y="-30" width="80" height="30" as="geometry">
                        <mxRectangle x="200" y="-30" width="240" height="350" as="alternateBounds"/>
                    </mxGeometry>
                </mxCell>
                <mxCell id="8ts7aHDEhac-k3moO0ko-74" value="&lt;div style=&quot;scrollbar-color: light-dark(#e2e2e2, #4b4b4b)&lt;br/&gt;&#x9;&#x9;&#x9;&#x9;&#x9;light-dark(#fbfbfb, var(--dark-panel-color));&quot;&gt;&lt;div style=&quot;scrollbar-color: light-dark(#e2e2e2, #4b4b4b)&lt;br/&gt;&#x9;&#x9;&#x9;&#x9;&#x9;light-dark(#fbfbfb, var(--dark-panel-color));&quot;&gt;&lt;div style=&quot;scrollbar-color: light-dark(#e2e2e2, #4b4b4b)&lt;br/&gt;&#x9;&#x9;&#x9;&#x9;&#x9;light-dark(#fbfbfb, var(--dark-panel-color));&quot;&gt;&lt;div style=&quot;scrollbar-color: light-dark(#e2e2e2, #4b4b4b)&lt;br/&gt;&#x9;&#x9;&#x9;&#x9;&#x9;light-dark(#fbfbfb, var(--dark-panel-color));&quot;&gt;&lt;span style=&quot;background-color: transparent;&quot;&gt;//TesterCycle:&lt;font style=&quot;color: rgb(240, 163, 10);&quot;&gt;0&lt;/font&gt;&lt;/span&gt;&lt;br&gt;&lt;/div&gt;&lt;div style=&quot;scrollbar-color: light-dark(#e2e2e2, #4b4b4b)&lt;br/&gt;&#x9;&#x9;&#x9;&#x9;&#x9;light-dark(#fbfbfb, var(--dark-panel-color));&quot;&gt;W &lt;font style=&quot;color: rgb(96, 169, 23);&quot;&gt;tset_gen_tp1&lt;/font&gt;;&lt;/div&gt;&lt;div style=&quot;scrollbar-color: light-dark(#e2e2e2, #4b4b4b)&lt;br/&gt;&#x9;&#x9;&#x9;&#x9;&#x9;light-dark(#fbfbfb, var(--dark-panel-color));&quot;&gt;&lt;span style=&quot;background-color: transparent;&quot;&gt;V {&lt;/span&gt;&lt;/div&gt;&lt;div style=&quot;scrollbar-color: light-dark(#e2e2e2, #4b4b4b)&lt;br/&gt;&#x9;&#x9;&#x9;&#x9;&#x9;light-dark(#fbfbfb, var(--dark-panel-color));&quot;&gt;&lt;span style=&quot;background-color: transparent;&quot;&gt;&amp;nbsp; &amp;nbsp; &lt;font style=&quot;color: rgb(27, 161, 226);&quot;&gt;_pi_&lt;/font&gt;=&lt;font style=&quot;color: rgb(240, 163, 10);&quot;&gt;1000&lt;/font&gt;;&lt;/span&gt;&lt;/div&gt;&lt;div style=&quot;scrollbar-color: light-dark(#e2e2e2, #4b4b4b)&lt;br/&gt;&#x9;&#x9;&#x9;&#x9;&#x9;light-dark(#fbfbfb, var(--dark-panel-color));&quot;&gt;&amp;nbsp; &amp;nbsp; &lt;font style=&quot;color: rgb(27, 161, 226);&quot;&gt;_po_&lt;/font&gt;=&lt;font style=&quot;color: rgb(240, 163, 10);&quot;&gt;X&lt;/font&gt;;&lt;/div&gt;&lt;div style=&quot;scrollbar-color: light-dark(#e2e2e2, #4b4b4b)&lt;br/&gt;&#x9;&#x9;&#x9;&#x9;&#x9;light-dark(#fbfbfb, var(--dark-panel-color));&quot;&gt;&lt;span style=&quot;background-color: transparent;&quot;&gt;}&lt;/span&gt;&lt;/div&gt;&lt;/div&gt;&lt;/div&gt;&lt;/div&gt;" style="shape=note;whiteSpace=wrap;html=1;backgroundOutline=1;darkOpacity=0.05;fontFamily=Helvetica;fontSize=13;fontColor=default;labelBackgroundColor=none;align=left;spacing=15;verticalAlign=top;size=33;collapsible=1;noLabel=0;overflow=hidden;" parent="1" vertex="1">
                    <mxGeometry x="960" y="-30" width="80" height="30" as="geometry">
                        <mxRectangle x="960" y="-30" width="200" height="140" as="alternateBounds"/>
                    </mxGeometry>
                </mxCell>
                <mxCell id="8ts7aHDEhac-k3moO0ko-77" value="&lt;div style=&quot;scrollbar-color: light-dark(#e2e2e2, #4b4b4b)&lt;br/&gt;&#x9;&#x9;&#x9;&#x9;&#x9;light-dark(#fbfbfb, var(--dark-panel-color));&quot;&gt;&lt;div style=&quot;scrollbar-color: light-dark(#e2e2e2, #4b4b4b)&lt;br/&gt;&#x9;&#x9;&#x9;&#x9;&#x9;light-dark(#fbfbfb, var(--dark-panel-color));&quot;&gt;&lt;div style=&quot;scrollbar-color: light-dark(#e2e2e2, #4b4b4b)&lt;br/&gt;&#x9;&#x9;&#x9;&#x9;&#x9;light-dark(#fbfbfb, var(--dark-panel-color));&quot;&gt;&lt;div style=&quot;scrollbar-color: light-dark(#e2e2e2, #4b4b4b)&lt;br/&gt;&#x9;&#x9;&#x9;&#x9;&#x9;light-dark(#fbfbfb, var(--dark-panel-color));&quot;&gt;&lt;div style=&quot;scrollbar-color: light-dark(#e2e2e2, #4b4b4b)&lt;br/&gt;&#x9;&#x9;&#x9;&#x9;&#x9;light-dark(#fbfbfb, var(--dark-panel-color));&quot;&gt;StilTest:&lt;/div&gt;&lt;div style=&quot;scrollbar-color: light-dark(#e2e2e2, #4b4b4b)&lt;br/&gt;&#x9;&#x9;&#x9;&#x9;&#x9;light-dark(#fbfbfb, var(--dark-panel-color));&quot;&gt;&amp;nbsp;&lt;span style=&quot;white-space:pre&quot;&gt;&#x9;&lt;/span&gt;name: &#39;&lt;font style=&quot;color: rgb(27, 161, 226);&quot;&gt;top_test_c0_10_trig_rosc_stil&lt;/font&gt;&#39;&lt;/div&gt;&lt;div style=&quot;scrollbar-color: light-dark(#e2e2e2, #4b4b4b)&lt;br/&gt;&#x9;&#x9;&#x9;&#x9;&#x9;light-dark(#fbfbfb, var(--dark-panel-color));&quot;&gt;&amp;nbsp;&lt;span style=&quot;white-space:pre&quot;&gt;&#x9;&lt;/span&gt;signal dict:&lt;/div&gt;&lt;div style=&quot;scrollbar-color: light-dark(#e2e2e2, #4b4b4b)&lt;br/&gt;&#x9;&#x9;&#x9;&#x9;&#x9;light-dark(#fbfbfb, var(--dark-panel-color));&quot;&gt;&amp;nbsp;&lt;span style=&quot;white-space:pre&quot;&gt;&#x9;&#x9;&lt;/span&gt;StilSignal:&lt;/div&gt;&lt;div style=&quot;scrollbar-color: light-dark(#e2e2e2, #4b4b4b)&lt;br/&gt;&#x9;&#x9;&#x9;&#x9;&#x9;light-dark(#fbfbfb, var(--dark-panel-color));&quot;&gt;&amp;nbsp;&lt;span style=&quot;white-space:pre&quot;&gt;&#x9;&#x9;&#x9;&lt;/span&gt;name: &#39;&lt;font style=&quot;color: rgb(96, 169, 23);&quot;&gt;jtag_tck&lt;/font&gt;&#39;&lt;/div&gt;&lt;div style=&quot;scrollbar-color: light-dark(#e2e2e2, #4b4b4b)&lt;br/&gt;&#x9;&#x9;&#x9;&#x9;&#x9;light-dark(#fbfbfb, var(--dark-panel-color));&quot;&gt;&amp;nbsp;&lt;span style=&quot;white-space:pre&quot;&gt;&#x9;&#x9;&#x9;&lt;/span&gt;signal type: &#39;&lt;font style=&quot;color: rgb(240, 163, 10);&quot;&gt;INPUT&lt;/font&gt;&#39;&lt;/div&gt;&lt;div style=&quot;scrollbar-color: light-dark(#e2e2e2, #4b4b4b)&lt;br/&gt;&#x9;&#x9;&#x9;&#x9;&#x9;light-dark(#fbfbfb, var(--dark-panel-color));&quot;&gt;&amp;nbsp;&lt;span style=&quot;white-space:pre&quot;&gt;&#x9;&#x9;&lt;/span&gt;...&lt;/div&gt;&lt;div style=&quot;scrollbar-color: light-dark(#e2e2e2, #4b4b4b)&lt;br/&gt;&#x9;&#x9;&#x9;&#x9;&#x9;light-dark(#fbfbfb, var(--dark-panel-color));&quot;&gt;&amp;nbsp;&lt;span style=&quot;white-space:pre&quot;&gt;&#x9;&lt;/span&gt;signal group dict:&lt;/div&gt;&lt;div style=&quot;scrollbar-color: light-dark(#e2e2e2, #4b4b4b)&lt;br/&gt;&#x9;&#x9;&#x9;&#x9;&#x9;light-dark(#fbfbfb, var(--dark-panel-color));&quot;&gt;&amp;nbsp;&lt;span style=&quot;white-space:pre&quot;&gt;&#x9;&#x9;&lt;/span&gt;StilSignalGroup:&lt;/div&gt;&lt;div style=&quot;scrollbar-color: light-dark(#e2e2e2, #4b4b4b)&lt;br/&gt;&#x9;&#x9;&#x9;&#x9;&#x9;light-dark(#fbfbfb, var(--dark-panel-color));&quot;&gt;&amp;nbsp;&lt;span style=&quot;white-space:pre&quot;&gt;&#x9;&#x9;&#x9;&lt;/span&gt;name: &#39;&lt;font style=&quot;color: rgb(27, 161, 226);&quot;&gt;input_time_gen_0&lt;/font&gt;&#39;&lt;/div&gt;&lt;div style=&quot;scrollbar-color: light-dark(#e2e2e2, #4b4b4b)&lt;br/&gt;&#x9;&#x9;&#x9;&#x9;&#x9;light-dark(#fbfbfb, var(--dark-panel-color));&quot;&gt;&amp;nbsp;&lt;span style=&quot;white-space:pre&quot;&gt;&#x9;&#x9;&#x9;&lt;/span&gt;signal type: &#39;&lt;font style=&quot;color: rgb(240, 163, 10);&quot;&gt;INPUT&lt;/font&gt;&#39;&lt;/div&gt;&lt;div style=&quot;scrollbar-color: light-dark(#e2e2e2, #4b4b4b)&lt;br/&gt;&#x9;&#x9;&#x9;&#x9;&#x9;light-dark(#fbfbfb, var(--dark-panel-color));&quot;&gt;&amp;nbsp;&lt;span style=&quot;white-space:pre&quot;&gt;&#x9;&#x9;&#x9;&lt;/span&gt;signal list:&lt;/div&gt;&lt;div style=&quot;scrollbar-color: light-dark(#e2e2e2, #4b4b4b)&lt;br/&gt;&#x9;&#x9;&#x9;&#x9;&#x9;light-dark(#fbfbfb, var(--dark-panel-color));&quot;&gt;&amp;nbsp;&lt;span style=&quot;white-space:pre&quot;&gt;&#x9;&#x9;&#x9;&#x9;&lt;/span&gt;signal: &#39;&lt;font style=&quot;color: rgb(96, 169, 23);&quot;&gt;jtag_tdi&lt;/font&gt;&#39;&lt;/div&gt;&lt;div style=&quot;scrollbar-color: light-dark(#e2e2e2, #4b4b4b)&lt;br/&gt;&#x9;&#x9;&#x9;&#x9;&#x9;light-dark(#fbfbfb, var(--dark-panel-color));&quot;&gt;&amp;nbsp;&lt;span style=&quot;white-space:pre&quot;&gt;&#x9;&#x9;&#x9;&#x9;&lt;/span&gt;signal: &#39;&lt;font style=&quot;color: rgb(96, 169, 23);&quot;&gt;jtag_tms&lt;/font&gt;&#39;&lt;/div&gt;&lt;div style=&quot;scrollbar-color: light-dark(#e2e2e2, #4b4b4b)&lt;br/&gt;&#x9;&#x9;&#x9;&#x9;&#x9;light-dark(#fbfbfb, var(--dark-panel-color));&quot;&gt;&amp;nbsp;&lt;span style=&quot;white-space:pre&quot;&gt;&#x9;&#x9;&#x9;&#x9;&lt;/span&gt;signal: &#39;&lt;font style=&quot;color: rgb(96, 169, 23);&quot;&gt;jtag_trst&lt;/font&gt;&#39;&lt;/div&gt;&lt;div style=&quot;scrollbar-color: light-dark(#e2e2e2, #4b4b4b)&lt;br/&gt;&#x9;&#x9;&#x9;&#x9;&#x9;light-dark(#fbfbfb, var(--dark-panel-color));&quot;&gt;&amp;nbsp; &amp;nbsp; &amp;nbsp; &amp;nbsp; ...&lt;/div&gt;&lt;div style=&quot;scrollbar-color: light-dark(#e2e2e2, #4b4b4b)&lt;br/&gt;&#x9;&#x9;&#x9;&#x9;&#x9;light-dark(#fbfbfb, var(--dark-panel-color));&quot;&gt;&amp;nbsp;&lt;span style=&quot;white-space:pre&quot;&gt;&#x9;&lt;/span&gt;waveform table:&lt;/div&gt;&lt;div style=&quot;scrollbar-color: light-dark(#e2e2e2, #4b4b4b)&lt;br/&gt;&#x9;&#x9;&#x9;&#x9;&#x9;light-dark(#fbfbfb, var(--dark-panel-color));&quot;&gt;&amp;nbsp;&lt;span style=&quot;white-space:pre&quot;&gt;&#x9;&#x9;&lt;/span&gt;StilWaveformTable:&lt;/div&gt;&lt;div style=&quot;scrollbar-color: light-dark(#e2e2e2, #4b4b4b)&lt;br/&gt;&#x9;&#x9;&#x9;&#x9;&#x9;light-dark(#fbfbfb, var(--dark-panel-color));&quot;&gt;&amp;nbsp;&lt;span style=&quot;white-space:pre&quot;&gt;&#x9;&#x9;&#x9;&lt;/span&gt;period: &#39;&lt;font style=&quot;color: rgb(240, 163, 10);&quot;&gt;100ns&lt;/font&gt;&#39;&lt;/div&gt;&lt;div style=&quot;scrollbar-color: light-dark(#e2e2e2, #4b4b4b)&lt;br/&gt;&#x9;&#x9;&#x9;&#x9;&#x9;light-dark(#fbfbfb, var(--dark-panel-color));&quot;&gt;&amp;nbsp;&lt;span style=&quot;white-space:pre&quot;&gt;&#x9;&#x9;&#x9;&lt;/span&gt;waveform dict:&lt;/div&gt;&lt;div style=&quot;scrollbar-color: light-dark(#e2e2e2, #4b4b4b)&lt;br/&gt;&#x9;&#x9;&#x9;&#x9;&#x9;light-dark(#fbfbfb, var(--dark-panel-color));&quot;&gt;&amp;nbsp;&lt;span style=&quot;white-space:pre&quot;&gt;&#x9;&#x9;&#x9;&#x9;&lt;/span&gt;StilWaveform:&lt;/div&gt;&lt;div style=&quot;scrollbar-color: light-dark(#e2e2e2, #4b4b4b)&lt;br/&gt;&#x9;&#x9;&#x9;&#x9;&#x9;light-dark(#fbfbfb, var(--dark-panel-color));&quot;&gt;&amp;nbsp;&lt;span style=&quot;white-space:pre&quot;&gt;&#x9;&#x9;&#x9;&lt;/span&gt;&amp;nbsp; &amp;nbsp; &amp;nbsp; &amp;nbsp; signal group name: &#39;&lt;font style=&quot;color: rgb(27, 161, 226);&quot;&gt;input_time_gen_0&lt;/font&gt;&#39;&lt;/div&gt;&lt;div style=&quot;scrollbar-color: light-dark(#e2e2e2, #4b4b4b)&lt;br/&gt;&#x9;&#x9;&#x9;&#x9;&#x9;light-dark(#fbfbfb, var(--dark-panel-color));&quot;&gt;&amp;nbsp;&lt;span style=&quot;white-space:pre&quot;&gt;&#x9;&#x9;&#x9;&lt;/span&gt;&amp;nbsp; &amp;nbsp; &amp;nbsp; &amp;nbsp; period: &#39;&lt;font style=&quot;color: rgb(240, 163, 10);&quot;&gt;100ns&lt;/font&gt;&#39;&lt;/div&gt;&lt;div style=&quot;scrollbar-color: light-dark(#e2e2e2, #4b4b4b)&lt;br/&gt;&#x9;&#x9;&#x9;&#x9;&#x9;light-dark(#fbfbfb, var(--dark-panel-color));&quot;&gt;&amp;nbsp;&lt;span style=&quot;white-space:pre&quot;&gt;&#x9;&#x9;&#x9;&lt;/span&gt;&amp;nbsp; &amp;nbsp; &amp;nbsp; &amp;nbsp; timing condition list:&lt;/div&gt;&lt;div style=&quot;scrollbar-color: light-dark(#e2e2e2, #4b4b4b)&lt;br/&gt;&#x9;&#x9;&#x9;&#x9;&#x9;light-dark(#fbfbfb, var(--dark-panel-color));&quot;&gt;&amp;nbsp;&lt;span style=&quot;white-space:pre&quot;&gt;&#x9;&#x9;&#x9;&lt;/span&gt;&amp;nbsp; &amp;nbsp; &amp;nbsp; &amp;nbsp; &lt;span style=&quot;white-space:pre&quot;&gt;&#x9;&lt;/span&gt;timing condition: &#39;&lt;font style=&quot;color: rgb(216, 0, 115);&quot;&gt;ZERO&lt;/font&gt;&#39;&lt;/div&gt;&lt;div style=&quot;scrollbar-color: light-dark(#e2e2e2, #4b4b4b)&lt;br/&gt;&#x9;&#x9;&#x9;&#x9;&#x9;light-dark(#fbfbfb, var(--dark-panel-color));&quot;&gt;&amp;nbsp;&lt;span style=&quot;white-space:pre&quot;&gt;&#x9;&#x9;&#x9;&lt;/span&gt;&amp;nbsp; &amp;nbsp; &amp;nbsp; &amp;nbsp; &lt;span style=&quot;white-space:pre&quot;&gt;&#x9;&lt;/span&gt;timing condition: &#39;&lt;font style=&quot;color: rgb(216, 0, 115);&quot;&gt;ONE&lt;/font&gt;&#39;&lt;/div&gt;&lt;div style=&quot;scrollbar-color: light-dark(#e2e2e2, #4b4b4b)&lt;br/&gt;&#x9;&#x9;&#x9;&#x9;&#x9;light-dark(#fbfbfb, var(--dark-panel-color));&quot;&gt;&amp;nbsp;&lt;span style=&quot;white-space:pre&quot;&gt;&#x9;&#x9;&#x9;&lt;/span&gt;&amp;nbsp; &amp;nbsp; &amp;nbsp; &amp;nbsp; &lt;span style=&quot;white-space:pre&quot;&gt;&#x9;&lt;/span&gt;timing condition: &#39;&lt;font style=&quot;color: rgb(216, 0, 115);&quot;&gt;UNKNOWN&lt;/font&gt;&#39;&lt;/div&gt;&lt;div style=&quot;scrollbar-color: light-dark(#e2e2e2, #4b4b4b)&lt;br/&gt;&#x9;&#x9;&#x9;&#x9;&#x9;light-dark(#fbfbfb, var(--dark-panel-color));&quot;&gt;&amp;nbsp;&lt;span style=&quot;white-space:pre&quot;&gt;&#x9;&#x9;&#x9;&lt;/span&gt;&amp;nbsp; &amp;nbsp; &amp;nbsp; &amp;nbsp; timestamp dictionary:&lt;/div&gt;&lt;div style=&quot;scrollbar-color: light-dark(#e2e2e2, #4b4b4b)&lt;br/&gt;&#x9;&#x9;&#x9;&#x9;&#x9;light-dark(#fbfbfb, var(--dark-panel-color));&quot;&gt;&amp;nbsp;&lt;span style=&quot;white-space:pre&quot;&gt;&#x9;&#x9;&#x9;&#x9;&lt;/span&gt;&amp;nbsp; &amp;nbsp; &amp;nbsp; &amp;nbsp; &#39;&lt;font style=&quot;color: rgb(216, 0, 115);&quot;&gt;0&lt;/font&gt;&#39;: &#39;[&#39;&lt;font style=&quot;color: rgb(240, 163, 10);&quot;&gt;D&lt;/font&gt;&#39;, &#39;&lt;font style=&quot;color: rgb(240, 163, 10);&quot;&gt;U&lt;/font&gt;&#39;, &#39;&lt;font style=&quot;color: rgb(240, 163, 10);&quot;&gt;N&lt;/font&gt;&#39;]&#39;&lt;/div&gt;&lt;div style=&quot;scrollbar-color: light-dark(#e2e2e2, #4b4b4b)&lt;br/&gt;&#x9;&#x9;&#x9;&#x9;&#x9;light-dark(#fbfbfb, var(--dark-panel-color));&quot;&gt;&amp;nbsp;&lt;span style=&quot;white-space:pre&quot;&gt;&#x9;&#x9;&#x9;&#x9;&lt;/span&gt;...&lt;/div&gt;&lt;div style=&quot;scrollbar-color: light-dark(#e2e2e2, #4b4b4b)&lt;br/&gt;&#x9;&#x9;&#x9;&#x9;&#x9;light-dark(#fbfbfb, var(--dark-panel-color));&quot;&gt;&amp;nbsp;&lt;span style=&quot;white-space:pre&quot;&gt;&#x9;&lt;/span&gt;test vector dict:&lt;/div&gt;&lt;div style=&quot;scrollbar-color: light-dark(#e2e2e2, #4b4b4b)&lt;br/&gt;&#x9;&#x9;&#x9;&#x9;&#x9;light-dark(#fbfbfb, var(--dark-panel-color));&quot;&gt;&amp;nbsp;&lt;span style=&quot;white-space:pre&quot;&gt;&#x9;&#x9;&lt;/span&gt;StilTestVector:&lt;/div&gt;&lt;div style=&quot;scrollbar-color: light-dark(#e2e2e2, #4b4b4b)&lt;br/&gt;&#x9;&#x9;&#x9;&#x9;&#x9;light-dark(#fbfbfb, var(--dark-panel-color));&quot;&gt;&amp;nbsp;&lt;span style=&quot;white-space:pre&quot;&gt;&#x9;&#x9;&#x9;&lt;/span&gt;tester_cycle: &#39;&lt;font style=&quot;color: rgb(216, 0, 115);&quot;&gt;0&lt;/font&gt;&#39;:&lt;/div&gt;&lt;div style=&quot;scrollbar-color: light-dark(#e2e2e2, #4b4b4b)&lt;br/&gt;&#x9;&#x9;&#x9;&#x9;&#x9;light-dark(#fbfbfb, var(--dark-panel-color));&quot;&gt;&amp;nbsp;&lt;span style=&quot;white-space:pre&quot;&gt;&#x9;&#x9;&#x9;&#x9;&lt;/span&gt;test vector:&lt;/div&gt;&lt;div style=&quot;scrollbar-color: light-dark(#e2e2e2, #4b4b4b)&lt;br/&gt;&#x9;&#x9;&#x9;&#x9;&#x9;light-dark(#fbfbfb, var(--dark-panel-color));&quot;&gt;&amp;nbsp;&lt;span style=&quot;white-space:pre&quot;&gt;&#x9;&#x9;&#x9;&#x9;&#x9;&lt;/span&gt;&#39;&lt;font style=&quot;color: rgb(216, 0, 115);&quot;&gt;0&lt;/font&gt;&#39;: &#39;&lt;font style=&quot;color: rgb(96, 169, 23);&quot;&gt;jtag_tck&lt;/font&gt;&#39;=&#39;&lt;font style=&quot;color: rgb(240, 163, 10);&quot;&gt;DOWN&lt;/font&gt;&#39;&lt;/div&gt;&lt;div style=&quot;scrollbar-color: light-dark(#e2e2e2, #4b4b4b)&lt;br/&gt;&#x9;&#x9;&#x9;&#x9;&#x9;light-dark(#fbfbfb, var(--dark-panel-color));&quot;&gt;&amp;nbsp;&lt;span style=&quot;white-space:pre&quot;&gt;&#x9;&#x9;&#x9;&#x9;&#x9;&lt;/span&gt;&#39;&lt;font style=&quot;color: rgb(216, 0, 115);&quot;&gt;0&lt;/font&gt;&#39;: &#39;&lt;font style=&quot;color: rgb(96, 169, 23);&quot;&gt;jtag_tdi&lt;/font&gt;&#39;=&#39;&lt;font style=&quot;color: rgb(240, 163, 10);&quot;&gt;DOWN&lt;/font&gt;&#39;&lt;/div&gt;&lt;div style=&quot;scrollbar-color: light-dark(#e2e2e2, #4b4b4b)&lt;br/&gt;&#x9;&#x9;&#x9;&#x9;&#x9;light-dark(#fbfbfb, var(--dark-panel-color));&quot;&gt;&amp;nbsp;&lt;span style=&quot;white-space:pre&quot;&gt;&#x9;&#x9;&#x9;&#x9;&#x9;&lt;/span&gt;&#39;&lt;font style=&quot;color: rgb(216, 0, 115);&quot;&gt;0&lt;/font&gt;&#39;: &#39;&lt;font style=&quot;color: rgb(96, 169, 23);&quot;&gt;jtag_tms&lt;/font&gt;&#39;=&#39;&lt;font style=&quot;color: rgb(240, 163, 10);&quot;&gt;DOWN&lt;/font&gt;&#39;&lt;/div&gt;&lt;div style=&quot;scrollbar-color: light-dark(#e2e2e2, #4b4b4b)&lt;br/&gt;&#x9;&#x9;&#x9;&#x9;&#x9;light-dark(#fbfbfb, var(--dark-panel-color));&quot;&gt;&amp;nbsp;&lt;span style=&quot;white-space:pre&quot;&gt;&#x9;&#x9;&#x9;&#x9;&#x9;&lt;/span&gt;&#39;&lt;font style=&quot;color: rgb(216, 0, 115);&quot;&gt;0&lt;/font&gt;&#39;: &#39;&lt;font style=&quot;color: rgb(96, 169, 23);&quot;&gt;jtag_trst&lt;/font&gt;&#39;=&#39;&lt;font style=&quot;color: rgb(240, 163, 10);&quot;&gt;DOWN&lt;/font&gt;&#39;&lt;/div&gt;&lt;div style=&quot;scrollbar-color: light-dark(#e2e2e2, #4b4b4b)&lt;br/&gt;&#x9;&#x9;&#x9;&#x9;&#x9;light-dark(#fbfbfb, var(--dark-panel-color));&quot;&gt;&amp;nbsp;&lt;span style=&quot;white-space:pre&quot;&gt;&#x9;&#x9;&#x9;&#x9;&#x9;&lt;/span&gt;&#39;&lt;font style=&quot;color: rgb(216, 0, 115);&quot;&gt;25&lt;/font&gt;&#39;: &#39;&lt;font style=&quot;color: rgb(96, 169, 23);&quot;&gt;jtag_tck&lt;/font&gt;&#39;=&#39;&lt;font style=&quot;color: rgb(240, 163, 10);&quot;&gt;UP&lt;/font&gt;&#39;&lt;/div&gt;&lt;div style=&quot;scrollbar-color: light-dark(#e2e2e2, #4b4b4b)&lt;br/&gt;&#x9;&#x9;&#x9;&#x9;&#x9;light-dark(#fbfbfb, var(--dark-panel-color));&quot;&gt;&amp;nbsp;&lt;span style=&quot;white-space:pre&quot;&gt;&#x9;&#x9;&#x9;&#x9;&#x9;&lt;/span&gt;&#39;&lt;font style=&quot;color: rgb(216, 0, 115);&quot;&gt;74&lt;/font&gt;&#39;: &#39;&lt;font style=&quot;color: rgb(96, 169, 23);&quot;&gt;jtag_tdo&lt;/font&gt;&#39;=&#39;&lt;font style=&quot;color: rgb(240, 163, 10);&quot;&gt;DONT_CARE&lt;/font&gt;&#39;&lt;/div&gt;&lt;div style=&quot;scrollbar-color: light-dark(#e2e2e2, #4b4b4b)&lt;br/&gt;&#x9;&#x9;&#x9;&#x9;&#x9;light-dark(#fbfbfb, var(--dark-panel-color));&quot;&gt;&amp;nbsp;&lt;span style=&quot;white-space:pre&quot;&gt;&#x9;&#x9;&#x9;&#x9;&#x9;&lt;/span&gt;&#39;&lt;font style=&quot;color: rgb(216, 0, 115);&quot;&gt;75&lt;/font&gt;&#39;: &#39;&lt;font style=&quot;color: rgb(96, 169, 23);&quot;&gt;jtag_tck&lt;/font&gt;&#39;=&#39;&lt;font style=&quot;color: rgb(240, 163, 10);&quot;&gt;DOWN&lt;/font&gt;&#39;&lt;/div&gt;&lt;div style=&quot;scrollbar-color: light-dark(#e2e2e2, #4b4b4b)&lt;br/&gt;&#x9;&#x9;&#x9;&#x9;&#x9;light-dark(#fbfbfb, var(--dark-panel-color));&quot;&gt;&amp;nbsp;&lt;span style=&quot;white-space:pre&quot;&gt;&#x9;&#x9;&lt;/span&gt;...&lt;/div&gt;&lt;div&gt;&lt;br&gt;&lt;/div&gt;&lt;/div&gt;&lt;/div&gt;&lt;/div&gt;&lt;/div&gt;" style="shape=note;whiteSpace=wrap;html=1;backgroundOutline=1;darkOpacity=0.05;fontFamily=Helvetica;fontSize=13;fontColor=default;labelBackgroundColor=none;align=left;spacing=15;verticalAlign=top;size=33;collapsible=1;noLabel=0;overflow=hidden;" parent="1" vertex="1">
                    <mxGeometry x="1400" y="-230" width="80" height="30" as="geometry">
                        <mxRectangle x="1400" y="-230" width="500" height="680" as="alternateBounds"/>
                    </mxGeometry>
                </mxCell>
            </root>
        </mxGraphModel>
    </diagram>
</mxfile>
